G04 #@! TF.GenerationSoftware,KiCad,Pcbnew,(5.0.1)-3*
G04 #@! TF.CreationDate,2019-10-26T20:53:38-04:00*
G04 #@! TF.ProjectId,PCB,5043422E6B696361645F706362000000,rev?*
G04 #@! TF.SameCoordinates,Original*
G04 #@! TF.FileFunction,Copper,L2,Bot,Signal*
G04 #@! TF.FilePolarity,Positive*
%FSLAX46Y46*%
G04 Gerber Fmt 4.6, Leading zero omitted, Abs format (unit mm)*
G04 Created by KiCad (PCBNEW (5.0.1)-3) date 10/26/2019 8:53:38 PM*
%MOMM*%
%LPD*%
G01*
G04 APERTURE LIST*
G04 #@! TA.AperFunction,ComponentPad*
%ADD10C,2.340000*%
G04 #@! TD*
G04 #@! TA.AperFunction,ComponentPad*
%ADD11C,1.440000*%
G04 #@! TD*
G04 #@! TA.AperFunction,ComponentPad*
%ADD12R,1.800000X1.800000*%
G04 #@! TD*
G04 #@! TA.AperFunction,ComponentPad*
%ADD13C,1.800000*%
G04 #@! TD*
G04 #@! TA.AperFunction,ComponentPad*
%ADD14R,1.700000X1.700000*%
G04 #@! TD*
G04 #@! TA.AperFunction,ComponentPad*
%ADD15O,1.700000X1.700000*%
G04 #@! TD*
G04 #@! TA.AperFunction,ComponentPad*
%ADD16O,1.501140X4.000500*%
G04 #@! TD*
G04 #@! TA.AperFunction,ComponentPad*
%ADD17R,1.600000X1.600000*%
G04 #@! TD*
G04 #@! TA.AperFunction,ComponentPad*
%ADD18O,1.600000X1.600000*%
G04 #@! TD*
G04 #@! TA.AperFunction,ComponentPad*
%ADD19R,1.905000X2.000000*%
G04 #@! TD*
G04 #@! TA.AperFunction,ComponentPad*
%ADD20O,1.905000X2.000000*%
G04 #@! TD*
G04 #@! TA.AperFunction,ComponentPad*
%ADD21R,3.500000X3.500000*%
G04 #@! TD*
G04 #@! TA.AperFunction,Conductor*
%ADD22C,0.100000*%
G04 #@! TD*
G04 #@! TA.AperFunction,ComponentPad*
%ADD23C,3.000000*%
G04 #@! TD*
G04 #@! TA.AperFunction,ComponentPad*
%ADD24C,3.500000*%
G04 #@! TD*
G04 #@! TA.AperFunction,ComponentPad*
%ADD25R,1.050000X1.500000*%
G04 #@! TD*
G04 #@! TA.AperFunction,ComponentPad*
%ADD26O,1.050000X1.500000*%
G04 #@! TD*
G04 #@! TA.AperFunction,ComponentPad*
%ADD27C,2.400000*%
G04 #@! TD*
G04 #@! TA.AperFunction,ComponentPad*
%ADD28O,2.400000X2.400000*%
G04 #@! TD*
G04 #@! TA.AperFunction,ViaPad*
%ADD29C,1.500000*%
G04 #@! TD*
G04 #@! TA.AperFunction,Conductor*
%ADD30C,0.762000*%
G04 #@! TD*
G04 #@! TA.AperFunction,Conductor*
%ADD31C,1.270000*%
G04 #@! TD*
G04 #@! TA.AperFunction,Conductor*
%ADD32C,0.381000*%
G04 #@! TD*
G04 #@! TA.AperFunction,Conductor*
%ADD33C,0.254000*%
G04 #@! TD*
G04 APERTURE END LIST*
D10*
G04 #@! TO.P,RV2,3*
G04 #@! TO.N,GND*
X72390000Y-96426000D03*
G04 #@! TO.P,RV2,2*
G04 #@! TO.N,/GPI35*
X72390000Y-101426000D03*
G04 #@! TO.P,RV2,1*
G04 #@! TO.N,3.3V*
X72390000Y-106426000D03*
G04 #@! TD*
D11*
G04 #@! TO.P,RV3,3*
G04 #@! TO.N,GND*
X173228000Y-71882000D03*
G04 #@! TO.P,RV3,2*
G04 #@! TO.N,Net-(RV3-Pad2)*
X168148000Y-69342000D03*
G04 #@! TO.P,RV3,1*
G04 #@! TO.N,3.3V*
X173228000Y-66802000D03*
G04 #@! TD*
D12*
G04 #@! TO.P,D2,1*
G04 #@! TO.N,Net-(D2-Pad1)*
X50800000Y-37592000D03*
D13*
G04 #@! TO.P,D2,2*
G04 #@! TO.N,Net-(D2-Pad2)*
X53340000Y-37592000D03*
G04 #@! TD*
D14*
G04 #@! TO.P,J3,1*
G04 #@! TO.N,/GPIO21*
X144290000Y-88700000D03*
D15*
G04 #@! TO.P,J3,2*
G04 #@! TO.N,/GPIO17*
X141750000Y-88700000D03*
G04 #@! TO.P,J3,3*
G04 #@! TO.N,/RX*
X139210000Y-88700000D03*
G04 #@! TO.P,J3,4*
G04 #@! TO.N,Net-(J3-Pad4)*
X136670000Y-88700000D03*
G04 #@! TO.P,J3,5*
G04 #@! TO.N,Net-(J3-Pad5)*
X134130000Y-88700000D03*
G04 #@! TO.P,J3,6*
G04 #@! TO.N,Net-(J3-Pad6)*
X131590000Y-88700000D03*
G04 #@! TO.P,J3,7*
G04 #@! TO.N,/GPIO36*
X129050000Y-88700000D03*
G04 #@! TO.P,J3,8*
G04 #@! TO.N,/GPI35*
X126510000Y-88700000D03*
G04 #@! TO.P,J3,9*
G04 #@! TO.N,/GPI39*
X123970000Y-88700000D03*
G04 #@! TO.P,J3,10*
G04 #@! TO.N,/GPI34*
X121430000Y-88700000D03*
G04 #@! TO.P,J3,11*
G04 #@! TO.N,/GPIO25*
X118890000Y-88700000D03*
G04 #@! TO.P,J3,12*
G04 #@! TO.N,/GPIO26*
X116350000Y-88700000D03*
G04 #@! TO.P,J3,13*
G04 #@! TO.N,GND*
X113810000Y-88700000D03*
G04 #@! TO.P,J3,14*
G04 #@! TO.N,Net-(J3-Pad14)*
X111270000Y-88700000D03*
G04 #@! TO.P,J3,15*
G04 #@! TO.N,Net-(J3-Pad15)*
X108730000Y-88700000D03*
G04 #@! TO.P,J3,16*
G04 #@! TO.N,/RST*
X106190000Y-88700000D03*
G04 #@! TD*
D16*
G04 #@! TO.P,U1,16*
G04 #@! TO.N,GND*
X127459160Y-54949420D03*
G04 #@! TO.P,U1,15*
G04 #@! TO.N,Net-(RV1-Pad2)*
X129999160Y-54949420D03*
G04 #@! TO.P,U1,14*
G04 #@! TO.N,/GPIO33*
X132539160Y-54949420D03*
G04 #@! TO.P,U1,13*
G04 #@! TO.N,/GPIO15*
X135079160Y-54949420D03*
G04 #@! TO.P,U1,12*
G04 #@! TO.N,/GPIO32*
X137619160Y-54949420D03*
G04 #@! TO.P,U1,11*
G04 #@! TO.N,/GPIO14*
X140159160Y-54949420D03*
G04 #@! TO.P,U1,10*
G04 #@! TO.N,Net-(U1-Pad10)*
X142699160Y-54949420D03*
G04 #@! TO.P,U1,9*
G04 #@! TO.N,Net-(U1-Pad9)*
X145239160Y-54949420D03*
G04 #@! TO.P,U1,8*
G04 #@! TO.N,Net-(U1-Pad8)*
X147779160Y-54949420D03*
G04 #@! TO.P,U1,7*
G04 #@! TO.N,Net-(U1-Pad7)*
X150319160Y-54949420D03*
G04 #@! TO.P,U1,6*
G04 #@! TO.N,/GPIO27*
X152859160Y-54949420D03*
G04 #@! TO.P,U1,5*
G04 #@! TO.N,GND*
X155399160Y-54949420D03*
G04 #@! TO.P,U1,4*
G04 #@! TO.N,/GPIO12*
X157939160Y-54949420D03*
G04 #@! TO.P,U1,3*
G04 #@! TO.N,Net-(RV3-Pad2)*
X160479160Y-54949420D03*
G04 #@! TO.P,U1,2*
G04 #@! TO.N,3.3V*
X163019160Y-54949420D03*
G04 #@! TO.P,U1,1*
G04 #@! TO.N,GND*
X165559160Y-54949420D03*
G04 #@! TD*
D12*
G04 #@! TO.P,D1,1*
G04 #@! TO.N,Net-(D1-Pad1)*
X22860000Y-37592000D03*
D13*
G04 #@! TO.P,D1,2*
G04 #@! TO.N,Net-(D1-Pad2)*
X25400000Y-37592000D03*
G04 #@! TD*
G04 #@! TO.P,D3,2*
G04 #@! TO.N,Net-(D3-Pad2)*
X81534000Y-37592000D03*
D12*
G04 #@! TO.P,D3,1*
G04 #@! TO.N,Net-(D3-Pad1)*
X78994000Y-37592000D03*
G04 #@! TD*
G04 #@! TO.P,D4,1*
G04 #@! TO.N,Net-(D4-Pad1)*
X103124000Y-37592000D03*
D13*
G04 #@! TO.P,D4,2*
G04 #@! TO.N,Net-(D4-Pad2)*
X105664000Y-37592000D03*
G04 #@! TD*
G04 #@! TO.P,D5,2*
G04 #@! TO.N,Net-(D5-Pad2)*
X129794000Y-37592000D03*
D12*
G04 #@! TO.P,D5,1*
G04 #@! TO.N,Net-(D5-Pad1)*
X127254000Y-37592000D03*
G04 #@! TD*
D14*
G04 #@! TO.P,J2,1*
G04 #@! TO.N,3.3V*
X178308000Y-24638000D03*
D15*
G04 #@! TO.P,J2,2*
G04 #@! TO.N,GND*
X175768000Y-24638000D03*
G04 #@! TO.P,J2,3*
G04 #@! TO.N,/SDA*
X173228000Y-24638000D03*
G04 #@! TO.P,J2,4*
G04 #@! TO.N,/SCL*
X170688000Y-24638000D03*
G04 #@! TD*
D14*
G04 #@! TO.P,J4,1*
G04 #@! TO.N,3.3V*
X51308000Y-59944000D03*
D15*
G04 #@! TO.P,J4,2*
G04 #@! TO.N,GND*
X48768000Y-59944000D03*
G04 #@! TO.P,J4,3*
G04 #@! TO.N,/SDA*
X46228000Y-59944000D03*
G04 #@! TO.P,J4,4*
G04 #@! TO.N,/SCL*
X43688000Y-59944000D03*
G04 #@! TD*
D14*
G04 #@! TO.P,J5,1*
G04 #@! TO.N,/SDA*
X144060000Y-68520000D03*
D15*
G04 #@! TO.P,J5,2*
G04 #@! TO.N,/SCL*
X141520000Y-68520000D03*
G04 #@! TO.P,J5,3*
G04 #@! TO.N,/GPIO14*
X138980000Y-68520000D03*
G04 #@! TO.P,J5,4*
G04 #@! TO.N,/GPIO32*
X136440000Y-68520000D03*
G04 #@! TO.P,J5,5*
G04 #@! TO.N,/GPIO15*
X133900000Y-68520000D03*
G04 #@! TO.P,J5,6*
G04 #@! TO.N,/GPIO33*
X131360000Y-68520000D03*
G04 #@! TO.P,J5,7*
G04 #@! TO.N,/GPIO27*
X128820000Y-68520000D03*
G04 #@! TO.P,J5,8*
G04 #@! TO.N,/GPIO12*
X126280000Y-68520000D03*
G04 #@! TO.P,J5,9*
G04 #@! TO.N,/GPIO13*
X123740000Y-68520000D03*
G04 #@! TO.P,J5,10*
G04 #@! TO.N,5V*
X121200000Y-68520000D03*
G04 #@! TD*
D17*
G04 #@! TO.P,U2,1*
G04 #@! TO.N,/GPIO26*
X84836000Y-62992000D03*
D18*
G04 #@! TO.P,U2,10*
G04 #@! TO.N,Net-(U2-Pad10)*
X105156000Y-55372000D03*
G04 #@! TO.P,U2,2*
G04 #@! TO.N,/GPIO25*
X87376000Y-62992000D03*
G04 #@! TO.P,U2,11*
G04 #@! TO.N,Net-(U2-Pad11)*
X102616000Y-55372000D03*
G04 #@! TO.P,U2,3*
G04 #@! TO.N,/GPIO36*
X89916000Y-62992000D03*
G04 #@! TO.P,U2,12*
G04 #@! TO.N,Net-(U2-Pad12)*
X100076000Y-55372000D03*
G04 #@! TO.P,U2,4*
G04 #@! TO.N,/GPIO17*
X92456000Y-62992000D03*
G04 #@! TO.P,U2,13*
G04 #@! TO.N,Net-(U2-Pad13)*
X97536000Y-55372000D03*
G04 #@! TO.P,U2,5*
G04 #@! TO.N,/GPIO21*
X94996000Y-62992000D03*
G04 #@! TO.P,U2,14*
G04 #@! TO.N,Net-(D5-Pad1)*
X94996000Y-55372000D03*
G04 #@! TO.P,U2,6*
G04 #@! TO.N,Net-(U2-Pad6)*
X97536000Y-62992000D03*
G04 #@! TO.P,U2,15*
G04 #@! TO.N,Net-(D4-Pad1)*
X92456000Y-55372000D03*
G04 #@! TO.P,U2,7*
G04 #@! TO.N,Net-(U2-Pad7)*
X100076000Y-62992000D03*
G04 #@! TO.P,U2,16*
G04 #@! TO.N,Net-(D3-Pad1)*
X89916000Y-55372000D03*
G04 #@! TO.P,U2,8*
G04 #@! TO.N,Net-(U2-Pad8)*
X102616000Y-62992000D03*
G04 #@! TO.P,U2,17*
G04 #@! TO.N,Net-(D2-Pad1)*
X87376000Y-55372000D03*
G04 #@! TO.P,U2,9*
G04 #@! TO.N,GND*
X105156000Y-62992000D03*
G04 #@! TO.P,U2,18*
G04 #@! TO.N,Net-(D1-Pad1)*
X84836000Y-55372000D03*
G04 #@! TD*
D11*
G04 #@! TO.P,RV1,3*
G04 #@! TO.N,3.3V*
X118872000Y-60198000D03*
G04 #@! TO.P,RV1,2*
G04 #@! TO.N,Net-(RV1-Pad2)*
X113792000Y-57658000D03*
G04 #@! TO.P,RV1,1*
G04 #@! TO.N,GND*
X118872000Y-55118000D03*
G04 #@! TD*
D19*
G04 #@! TO.P,U3,1*
G04 #@! TO.N,GND*
X187706000Y-94996000D03*
D20*
G04 #@! TO.P,U3,2*
G04 #@! TO.N,3.3V*
X190246000Y-94996000D03*
G04 #@! TO.P,U3,3*
G04 #@! TO.N,/9V_OUT*
X192786000Y-94996000D03*
G04 #@! TD*
D15*
G04 #@! TO.P,J6,2*
G04 #@! TO.N,/GPI34*
X205232000Y-24638000D03*
D14*
G04 #@! TO.P,J6,1*
G04 #@! TO.N,3.3V*
X202692000Y-24638000D03*
G04 #@! TD*
G04 #@! TO.P,J7,1*
G04 #@! TO.N,5V*
X205232000Y-102870000D03*
D15*
G04 #@! TO.P,J7,2*
G04 #@! TO.N,/9V_OUT*
X205232000Y-100330000D03*
G04 #@! TD*
D21*
G04 #@! TO.P,J1,1*
G04 #@! TO.N,GND*
X211836000Y-89154000D03*
D22*
G04 #@! TD*
G04 #@! TO.N,9V*
G04 #@! TO.C,J1*
G36*
X218659513Y-87407611D02*
X218732318Y-87418411D01*
X218803714Y-87436295D01*
X218873013Y-87461090D01*
X218939548Y-87492559D01*
X219002678Y-87530398D01*
X219061795Y-87574242D01*
X219116330Y-87623670D01*
X219165758Y-87678205D01*
X219209602Y-87737322D01*
X219247441Y-87800452D01*
X219278910Y-87866987D01*
X219303705Y-87936286D01*
X219321589Y-88007682D01*
X219332389Y-88080487D01*
X219336000Y-88154000D01*
X219336000Y-90154000D01*
X219332389Y-90227513D01*
X219321589Y-90300318D01*
X219303705Y-90371714D01*
X219278910Y-90441013D01*
X219247441Y-90507548D01*
X219209602Y-90570678D01*
X219165758Y-90629795D01*
X219116330Y-90684330D01*
X219061795Y-90733758D01*
X219002678Y-90777602D01*
X218939548Y-90815441D01*
X218873013Y-90846910D01*
X218803714Y-90871705D01*
X218732318Y-90889589D01*
X218659513Y-90900389D01*
X218586000Y-90904000D01*
X217086000Y-90904000D01*
X217012487Y-90900389D01*
X216939682Y-90889589D01*
X216868286Y-90871705D01*
X216798987Y-90846910D01*
X216732452Y-90815441D01*
X216669322Y-90777602D01*
X216610205Y-90733758D01*
X216555670Y-90684330D01*
X216506242Y-90629795D01*
X216462398Y-90570678D01*
X216424559Y-90507548D01*
X216393090Y-90441013D01*
X216368295Y-90371714D01*
X216350411Y-90300318D01*
X216339611Y-90227513D01*
X216336000Y-90154000D01*
X216336000Y-88154000D01*
X216339611Y-88080487D01*
X216350411Y-88007682D01*
X216368295Y-87936286D01*
X216393090Y-87866987D01*
X216424559Y-87800452D01*
X216462398Y-87737322D01*
X216506242Y-87678205D01*
X216555670Y-87623670D01*
X216610205Y-87574242D01*
X216669322Y-87530398D01*
X216732452Y-87492559D01*
X216798987Y-87461090D01*
X216868286Y-87436295D01*
X216939682Y-87418411D01*
X217012487Y-87407611D01*
X217086000Y-87404000D01*
X218586000Y-87404000D01*
X218659513Y-87407611D01*
X218659513Y-87407611D01*
G37*
D23*
G04 #@! TO.P,J1,2*
G04 #@! TO.N,9V*
X217836000Y-89154000D03*
D22*
G04 #@! TD*
G04 #@! TO.N,9V*
G04 #@! TO.C,J1*
G36*
X215796765Y-82708213D02*
X215881704Y-82720813D01*
X215964999Y-82741677D01*
X216045848Y-82770605D01*
X216123472Y-82807319D01*
X216197124Y-82851464D01*
X216266094Y-82902616D01*
X216329718Y-82960282D01*
X216387384Y-83023906D01*
X216438536Y-83092876D01*
X216482681Y-83166528D01*
X216519395Y-83244152D01*
X216548323Y-83325001D01*
X216569187Y-83408296D01*
X216581787Y-83493235D01*
X216586000Y-83579000D01*
X216586000Y-85329000D01*
X216581787Y-85414765D01*
X216569187Y-85499704D01*
X216548323Y-85582999D01*
X216519395Y-85663848D01*
X216482681Y-85741472D01*
X216438536Y-85815124D01*
X216387384Y-85884094D01*
X216329718Y-85947718D01*
X216266094Y-86005384D01*
X216197124Y-86056536D01*
X216123472Y-86100681D01*
X216045848Y-86137395D01*
X215964999Y-86166323D01*
X215881704Y-86187187D01*
X215796765Y-86199787D01*
X215711000Y-86204000D01*
X213961000Y-86204000D01*
X213875235Y-86199787D01*
X213790296Y-86187187D01*
X213707001Y-86166323D01*
X213626152Y-86137395D01*
X213548528Y-86100681D01*
X213474876Y-86056536D01*
X213405906Y-86005384D01*
X213342282Y-85947718D01*
X213284616Y-85884094D01*
X213233464Y-85815124D01*
X213189319Y-85741472D01*
X213152605Y-85663848D01*
X213123677Y-85582999D01*
X213102813Y-85499704D01*
X213090213Y-85414765D01*
X213086000Y-85329000D01*
X213086000Y-83579000D01*
X213090213Y-83493235D01*
X213102813Y-83408296D01*
X213123677Y-83325001D01*
X213152605Y-83244152D01*
X213189319Y-83166528D01*
X213233464Y-83092876D01*
X213284616Y-83023906D01*
X213342282Y-82960282D01*
X213405906Y-82902616D01*
X213474876Y-82851464D01*
X213548528Y-82807319D01*
X213626152Y-82770605D01*
X213707001Y-82741677D01*
X213790296Y-82720813D01*
X213875235Y-82708213D01*
X213961000Y-82704000D01*
X215711000Y-82704000D01*
X215796765Y-82708213D01*
X215796765Y-82708213D01*
G37*
D24*
G04 #@! TO.P,J1,3*
G04 #@! TO.N,9V*
X214836000Y-84454000D03*
G04 #@! TD*
D12*
G04 #@! TO.P,D6,1*
G04 #@! TO.N,GND*
X195326000Y-76708000D03*
D13*
G04 #@! TO.P,D6,2*
G04 #@! TO.N,Net-(D6-Pad2)*
X197866000Y-76708000D03*
G04 #@! TD*
D14*
G04 #@! TO.P,J8,1*
G04 #@! TO.N,Net-(J8-Pad1)*
X202946000Y-47752000D03*
D15*
G04 #@! TO.P,J8,2*
G04 #@! TO.N,GND*
X205486000Y-47752000D03*
G04 #@! TD*
D25*
G04 #@! TO.P,Q1,1*
G04 #@! TO.N,9V*
X138684000Y-96012000D03*
D26*
G04 #@! TO.P,Q1,3*
G04 #@! TO.N,Net-(Q1-Pad3)*
X136144000Y-96012000D03*
G04 #@! TO.P,Q1,2*
G04 #@! TO.N,/GPIO13*
X137414000Y-96012000D03*
G04 #@! TD*
D27*
G04 #@! TO.P,R1,1*
G04 #@! TO.N,3.3V*
X38354000Y-26924000D03*
D28*
G04 #@! TO.P,R1,2*
G04 #@! TO.N,Net-(D1-Pad2)*
X38354000Y-49784000D03*
G04 #@! TD*
G04 #@! TO.P,R2,2*
G04 #@! TO.N,Net-(D2-Pad2)*
X66040000Y-49784000D03*
D27*
G04 #@! TO.P,R2,1*
G04 #@! TO.N,3.3V*
X66040000Y-26924000D03*
G04 #@! TD*
D28*
G04 #@! TO.P,R3,2*
G04 #@! TO.N,Net-(D3-Pad2)*
X92456000Y-49530000D03*
D27*
G04 #@! TO.P,R3,1*
G04 #@! TO.N,3.3V*
X92456000Y-26670000D03*
G04 #@! TD*
D28*
G04 #@! TO.P,R4,2*
G04 #@! TO.N,Net-(D4-Pad2)*
X116586000Y-49276000D03*
D27*
G04 #@! TO.P,R4,1*
G04 #@! TO.N,3.3V*
X116586000Y-26416000D03*
G04 #@! TD*
G04 #@! TO.P,R5,1*
G04 #@! TO.N,3.3V*
X140208000Y-26416000D03*
D28*
G04 #@! TO.P,R5,2*
G04 #@! TO.N,Net-(D5-Pad2)*
X140208000Y-49276000D03*
G04 #@! TD*
D27*
G04 #@! TO.P,R6,1*
G04 #@! TO.N,/GPI34*
X184658000Y-66548000D03*
D28*
G04 #@! TO.P,R6,2*
G04 #@! TO.N,GND*
X207518000Y-66548000D03*
G04 #@! TD*
G04 #@! TO.P,R7,2*
G04 #@! TO.N,Net-(D6-Pad2)*
X167132000Y-103124000D03*
D27*
G04 #@! TO.P,R7,1*
G04 #@! TO.N,3.3V*
X189992000Y-103124000D03*
G04 #@! TD*
G04 #@! TO.P,R8,1*
G04 #@! TO.N,Net-(J8-Pad1)*
X147057000Y-108458000D03*
D28*
G04 #@! TO.P,R8,2*
G04 #@! TO.N,Net-(Q1-Pad3)*
X124197000Y-108458000D03*
G04 #@! TD*
D29*
G04 #@! TO.N,GND*
X114808000Y-76200000D03*
X184404000Y-100076000D03*
X147066000Y-60960000D03*
X133350000Y-85852000D03*
G04 #@! TO.N,5V*
X179578000Y-103886000D03*
X161544000Y-80772000D03*
G04 #@! TO.N,/SCL*
X56896000Y-75692000D03*
X89408000Y-75692000D03*
X159766000Y-71374000D03*
X159766000Y-65532000D03*
X167386000Y-58166000D03*
G04 #@! TO.N,/SDA*
X71374000Y-69850000D03*
X170128114Y-59995886D03*
G04 #@! TO.N,3.3V*
X205232000Y-80264000D03*
G04 #@! TO.N,9V*
X166878000Y-94996000D03*
X185166000Y-83820000D03*
G04 #@! TD*
D30*
G04 #@! TO.N,Net-(D1-Pad1)*
X22860000Y-39254000D02*
X22860000Y-37592000D01*
X38978000Y-55372000D02*
X22860000Y-39254000D01*
X84836000Y-55372000D02*
X38978000Y-55372000D01*
G04 #@! TO.N,Net-(D1-Pad2)*
X37592000Y-49784000D02*
X38354000Y-49784000D01*
X25400000Y-37592000D02*
X37592000Y-49784000D01*
D31*
G04 #@! TO.N,Net-(D2-Pad1)*
X86576001Y-54572001D02*
X87376000Y-55372000D01*
X71407201Y-39403201D02*
X86576001Y-54572001D01*
X52470623Y-39403201D02*
X71407201Y-39403201D01*
X50800000Y-37732578D02*
X52470623Y-39403201D01*
X50800000Y-37592000D02*
X50800000Y-37732578D01*
G04 #@! TO.N,Net-(D3-Pad1)*
X78994000Y-44450000D02*
X89916000Y-55372000D01*
X78994000Y-37592000D02*
X78994000Y-44450000D01*
D30*
G04 #@! TO.N,Net-(D4-Pad1)*
X91948000Y-54864000D02*
X92456000Y-55372000D01*
D31*
X103124000Y-44704000D02*
X92456000Y-55372000D01*
X103124000Y-37592000D02*
X103124000Y-44704000D01*
G04 #@! TO.N,Net-(D5-Pad1)*
X112776000Y-37592000D02*
X94996000Y-55372000D01*
X127254000Y-37592000D02*
X112776000Y-37592000D01*
D30*
G04 #@! TO.N,GND*
X178054000Y-76708000D02*
X187452000Y-76708000D01*
X173228000Y-71882000D02*
X178054000Y-76708000D01*
X187452000Y-76708000D02*
X195326000Y-76708000D01*
G04 #@! TO.N,/GPIO21*
X144290000Y-87088000D02*
X144290000Y-88700000D01*
G04 #@! TO.N,/GPIO36*
X122646000Y-82296000D02*
X129050000Y-88700000D01*
X104624854Y-82296000D02*
X122646000Y-82296000D01*
X89916000Y-62992000D02*
X89916000Y-67310000D01*
X89916000Y-67310000D02*
X104624854Y-82296000D01*
G04 #@! TO.N,/GPIO14*
X140159160Y-67340840D02*
X138980000Y-68520000D01*
X140159160Y-54949420D02*
X140159160Y-67340840D01*
G04 #@! TO.N,/GPIO32*
X137619160Y-67340840D02*
X136440000Y-68520000D01*
X137619160Y-54949420D02*
X137619160Y-67340840D01*
G04 #@! TO.N,/GPIO15*
X135079160Y-67340840D02*
X133900000Y-68520000D01*
X135079160Y-54949420D02*
X135079160Y-67340840D01*
G04 #@! TO.N,/GPIO33*
X132539160Y-67340840D02*
X131360000Y-68520000D01*
X132539160Y-54949420D02*
X132539160Y-67340840D01*
G04 #@! TO.N,/GPIO27*
X152859160Y-57711670D02*
X152859160Y-54949420D01*
X152859160Y-62466642D02*
X152859160Y-57711670D01*
X142681802Y-72644000D02*
X152859160Y-62466642D01*
X132944000Y-72644000D02*
X142681802Y-72644000D01*
X128820000Y-68520000D02*
X132944000Y-72644000D01*
G04 #@! TO.N,/GPIO13*
X123740000Y-69722081D02*
X130471919Y-76454000D01*
X123740000Y-68520000D02*
X123740000Y-69722081D01*
X130471919Y-76454000D02*
X141732000Y-76454000D01*
X141732000Y-76454000D02*
X148082000Y-82804000D01*
X148082000Y-82804000D02*
X148082000Y-87653802D01*
G04 #@! TO.N,3.3V*
X173228000Y-66407940D02*
X173228000Y-66802000D01*
X163019160Y-54949420D02*
X163019160Y-56199100D01*
G04 #@! TO.N,GND*
X127290580Y-55118000D02*
X127459160Y-54949420D01*
X118872000Y-55118000D02*
X127290580Y-55118000D01*
X113030000Y-55118000D02*
X105156000Y-62992000D01*
X118872000Y-55118000D02*
X113030000Y-55118000D01*
D31*
X105156000Y-64123370D02*
X115316000Y-74283370D01*
X105156000Y-62992000D02*
X105156000Y-64123370D01*
X174808401Y-70301599D02*
X173947999Y-71162001D01*
X173947999Y-71162001D02*
X173228000Y-71882000D01*
X174808401Y-66043407D02*
X174808401Y-70301599D01*
X173931524Y-65166530D02*
X174808401Y-66043407D01*
X172003136Y-65166530D02*
X173931524Y-65166530D01*
X165559160Y-58722554D02*
X172003136Y-65166530D01*
X165559160Y-54949420D02*
X165559160Y-58722554D01*
G04 #@! TO.N,5V*
X179578000Y-103886000D02*
X166370000Y-90678000D01*
X166370000Y-90678000D02*
X162814000Y-90678000D01*
X161544000Y-89408000D02*
X162814000Y-90678000D01*
X161544000Y-80772000D02*
X161544000Y-89408000D01*
G04 #@! TO.N,/SCL*
X56896000Y-75692000D02*
X89408000Y-75692000D01*
X159766000Y-71374000D02*
X159766000Y-70313340D01*
X159766000Y-70313340D02*
X159766000Y-65532000D01*
X170688000Y-54864000D02*
X170688000Y-24638000D01*
X167386000Y-58166000D02*
X170688000Y-54864000D01*
G04 #@! TO.N,/SDA*
X173228000Y-24638000D02*
X173228000Y-35814000D01*
X46228000Y-59944000D02*
X56134000Y-69850000D01*
X56134000Y-69850000D02*
X71374000Y-69850000D01*
X173228000Y-35814000D02*
X173228000Y-56896000D01*
X173228000Y-56896000D02*
X170128114Y-59995886D01*
D30*
G04 #@! TO.N,/GPIO21*
X110555221Y-78551221D02*
X136717221Y-78551221D01*
X94996000Y-62992000D02*
X110555221Y-78551221D01*
X144290000Y-86124000D02*
X144290000Y-87088000D01*
X136717221Y-78551221D02*
X144290000Y-86124000D01*
G04 #@! TO.N,/GPIO25*
X88949770Y-68121770D02*
X104140000Y-83312000D01*
X87376000Y-62992000D02*
X88949770Y-64565770D01*
X88949770Y-64565770D02*
X88949770Y-68121770D01*
X113502000Y-83312000D02*
X118890000Y-88700000D01*
X104140000Y-83312000D02*
X113502000Y-83312000D01*
G04 #@! TO.N,/GPIO26*
X84836000Y-65374454D02*
X104297546Y-84836000D01*
X84836000Y-62992000D02*
X84836000Y-65374454D01*
X112486000Y-84836000D02*
X116350000Y-88700000D01*
X104297546Y-84836000D02*
X112486000Y-84836000D01*
G04 #@! TO.N,/GPIO12*
X127129999Y-69369999D02*
X126280000Y-68520000D01*
X131370230Y-73610230D02*
X127129999Y-69369999D01*
X143082027Y-73610230D02*
X131370230Y-73610230D01*
X157939160Y-58753096D02*
X143082027Y-73610230D01*
X157939160Y-54949420D02*
X157939160Y-58753096D01*
D32*
G04 #@! TO.N,/GPIO13*
X137414000Y-94881000D02*
X140093000Y-92202000D01*
X137414000Y-96012000D02*
X137414000Y-94881000D01*
X140093000Y-92202000D02*
X145796000Y-92202000D01*
X148082000Y-89916000D02*
X148082000Y-87653802D01*
X145796000Y-92202000D02*
X148082000Y-89916000D01*
D31*
G04 #@! TO.N,3.3V*
X163019160Y-54949420D02*
X163019160Y-59895160D01*
X169926000Y-66802000D02*
X173228000Y-66802000D01*
X163019160Y-59895160D02*
X169926000Y-66802000D01*
X202692000Y-26758000D02*
X212090000Y-36156000D01*
X202692000Y-24638000D02*
X202692000Y-26758000D01*
X212090000Y-36156000D02*
X212090000Y-73406000D01*
X212090000Y-73406000D02*
X205232000Y-80264000D01*
D30*
G04 #@! TO.N,Net-(RV3-Pad2)*
X160479160Y-61673160D02*
X168148000Y-69342000D01*
X160479160Y-54949420D02*
X160479160Y-61673160D01*
D31*
G04 #@! TO.N,9V*
X214836000Y-84454000D02*
X217550000Y-84454000D01*
X217836000Y-84740000D02*
X217836000Y-89154000D01*
X217550000Y-84454000D02*
X217836000Y-84740000D01*
D32*
X138684000Y-96012000D02*
X139700000Y-96012000D01*
D31*
X165862000Y-96012000D02*
X166878000Y-94996000D01*
X139700000Y-96012000D02*
X165862000Y-96012000D01*
X214202000Y-83820000D02*
X214836000Y-84454000D01*
X185166000Y-83820000D02*
X214202000Y-83820000D01*
D30*
G04 #@! TO.N,/GPIO17*
X92456000Y-64123370D02*
X108088630Y-79756000D01*
X92456000Y-62992000D02*
X92456000Y-64123370D01*
X108088630Y-79756000D02*
X136144000Y-79756000D01*
X141750000Y-85362000D02*
X141750000Y-88700000D01*
X136144000Y-79756000D02*
X141750000Y-85362000D01*
G04 #@! TD*
D33*
G04 #@! TO.N,GND*
G36*
X220245000Y-118645000D02*
X18515000Y-118645000D01*
X18515000Y-108458000D01*
X122326051Y-108458000D01*
X122468469Y-109173981D01*
X122874039Y-109780961D01*
X123481019Y-110186531D01*
X124016273Y-110293000D01*
X124377727Y-110293000D01*
X124912981Y-110186531D01*
X125519961Y-109780961D01*
X125925531Y-109173981D01*
X126067949Y-108458000D01*
X125995345Y-108092996D01*
X145222000Y-108092996D01*
X145222000Y-108823004D01*
X145501362Y-109497444D01*
X146017556Y-110013638D01*
X146691996Y-110293000D01*
X147422004Y-110293000D01*
X148096444Y-110013638D01*
X148612638Y-109497444D01*
X148892000Y-108823004D01*
X148892000Y-108092996D01*
X148612638Y-107418556D01*
X148096444Y-106902362D01*
X147422004Y-106623000D01*
X146691996Y-106623000D01*
X146017556Y-106902362D01*
X145501362Y-107418556D01*
X145222000Y-108092996D01*
X125995345Y-108092996D01*
X125925531Y-107742019D01*
X125519961Y-107135039D01*
X124912981Y-106729469D01*
X124377727Y-106623000D01*
X124016273Y-106623000D01*
X123481019Y-106729469D01*
X122874039Y-107135039D01*
X122468469Y-107742019D01*
X122326051Y-108458000D01*
X18515000Y-108458000D01*
X18515000Y-106066963D01*
X70585000Y-106066963D01*
X70585000Y-106785037D01*
X70859795Y-107448450D01*
X71367550Y-107956205D01*
X72030963Y-108231000D01*
X72749037Y-108231000D01*
X73412450Y-107956205D01*
X73920205Y-107448450D01*
X74195000Y-106785037D01*
X74195000Y-106066963D01*
X73920205Y-105403550D01*
X73412450Y-104895795D01*
X72749037Y-104621000D01*
X72030963Y-104621000D01*
X71367550Y-104895795D01*
X70859795Y-105403550D01*
X70585000Y-106066963D01*
X18515000Y-106066963D01*
X18515000Y-101066963D01*
X70585000Y-101066963D01*
X70585000Y-101785037D01*
X70859795Y-102448450D01*
X71367550Y-102956205D01*
X72030963Y-103231000D01*
X72749037Y-103231000D01*
X73007357Y-103124000D01*
X165261051Y-103124000D01*
X165403469Y-103839981D01*
X165809039Y-104446961D01*
X166416019Y-104852531D01*
X166951273Y-104959000D01*
X167312727Y-104959000D01*
X167847981Y-104852531D01*
X168454961Y-104446961D01*
X168860531Y-103839981D01*
X169002949Y-103124000D01*
X168860531Y-102408019D01*
X168454961Y-101801039D01*
X167847981Y-101395469D01*
X167312727Y-101289000D01*
X166951273Y-101289000D01*
X166416019Y-101395469D01*
X165809039Y-101801039D01*
X165403469Y-102408019D01*
X165261051Y-103124000D01*
X73007357Y-103124000D01*
X73412450Y-102956205D01*
X73920205Y-102448450D01*
X74195000Y-101785037D01*
X74195000Y-101066963D01*
X73920205Y-100403550D01*
X73412450Y-99895795D01*
X72749037Y-99621000D01*
X72030963Y-99621000D01*
X71367550Y-99895795D01*
X70859795Y-100403550D01*
X70585000Y-101066963D01*
X18515000Y-101066963D01*
X18515000Y-97701486D01*
X71294120Y-97701486D01*
X71413586Y-97985984D01*
X72084890Y-98240894D01*
X72802646Y-98219504D01*
X73366414Y-97985984D01*
X73485880Y-97701486D01*
X72390000Y-96605605D01*
X71294120Y-97701486D01*
X18515000Y-97701486D01*
X18515000Y-96120890D01*
X70575106Y-96120890D01*
X70596496Y-96838646D01*
X70830016Y-97402414D01*
X71114514Y-97521880D01*
X72210395Y-96426000D01*
X72569605Y-96426000D01*
X73665486Y-97521880D01*
X73949984Y-97402414D01*
X74204894Y-96731110D01*
X74183504Y-96013354D01*
X73949984Y-95449586D01*
X73665486Y-95330120D01*
X72569605Y-96426000D01*
X72210395Y-96426000D01*
X71114514Y-95330120D01*
X70830016Y-95449586D01*
X70575106Y-96120890D01*
X18515000Y-96120890D01*
X18515000Y-95150514D01*
X71294120Y-95150514D01*
X72390000Y-96246395D01*
X73485880Y-95150514D01*
X73366414Y-94866016D01*
X72695110Y-94611106D01*
X71977354Y-94632496D01*
X71413586Y-94866016D01*
X71294120Y-95150514D01*
X18515000Y-95150514D01*
X18515000Y-75416506D01*
X55511000Y-75416506D01*
X55511000Y-75967494D01*
X55721853Y-76476540D01*
X56111460Y-76866147D01*
X56620506Y-77077000D01*
X57171494Y-77077000D01*
X57449130Y-76962000D01*
X88854870Y-76962000D01*
X89132506Y-77077000D01*
X89683494Y-77077000D01*
X90192540Y-76866147D01*
X90582147Y-76476540D01*
X90793000Y-75967494D01*
X90793000Y-75416506D01*
X90582147Y-74907460D01*
X90192540Y-74517853D01*
X89683494Y-74307000D01*
X89132506Y-74307000D01*
X88854870Y-74422000D01*
X57449130Y-74422000D01*
X57171494Y-74307000D01*
X56620506Y-74307000D01*
X56111460Y-74517853D01*
X55721853Y-74907460D01*
X55511000Y-75416506D01*
X18515000Y-75416506D01*
X18515000Y-59944000D01*
X42173908Y-59944000D01*
X42289161Y-60523418D01*
X42617375Y-61014625D01*
X43108582Y-61342839D01*
X43541744Y-61429000D01*
X43834256Y-61429000D01*
X44267418Y-61342839D01*
X44758625Y-61014625D01*
X44958000Y-60716239D01*
X45157375Y-61014625D01*
X45648582Y-61342839D01*
X45876031Y-61388081D01*
X55147531Y-70659582D01*
X55218382Y-70765618D01*
X55638471Y-71046313D01*
X56008920Y-71120000D01*
X56008924Y-71120000D01*
X56134000Y-71144879D01*
X56259076Y-71120000D01*
X70820870Y-71120000D01*
X71098506Y-71235000D01*
X71649494Y-71235000D01*
X72158540Y-71024147D01*
X72548147Y-70634540D01*
X72759000Y-70125494D01*
X72759000Y-69574506D01*
X72548147Y-69065460D01*
X72158540Y-68675853D01*
X71649494Y-68465000D01*
X71098506Y-68465000D01*
X70820870Y-68580000D01*
X56660051Y-68580000D01*
X50272051Y-62192000D01*
X83388560Y-62192000D01*
X83388560Y-63792000D01*
X83437843Y-64039765D01*
X83578191Y-64249809D01*
X83788235Y-64390157D01*
X83820001Y-64396476D01*
X83820001Y-65274386D01*
X83800096Y-65374454D01*
X83878950Y-65770877D01*
X84026980Y-65992419D01*
X84103506Y-66106949D01*
X84188338Y-66163632D01*
X103508368Y-85483663D01*
X103565051Y-85568495D01*
X103695440Y-85655618D01*
X103901121Y-85793050D01*
X103901122Y-85793050D01*
X103901123Y-85793051D01*
X104197481Y-85852000D01*
X104297545Y-85871904D01*
X104397609Y-85852000D01*
X112065160Y-85852000D01*
X113492440Y-87279280D01*
X113453110Y-87258524D01*
X113043076Y-87428355D01*
X112614817Y-87818642D01*
X112553843Y-87948478D01*
X112340625Y-87629375D01*
X111849418Y-87301161D01*
X111416256Y-87215000D01*
X111123744Y-87215000D01*
X110690582Y-87301161D01*
X110199375Y-87629375D01*
X110000000Y-87927761D01*
X109800625Y-87629375D01*
X109309418Y-87301161D01*
X108876256Y-87215000D01*
X108583744Y-87215000D01*
X108150582Y-87301161D01*
X107659375Y-87629375D01*
X107460000Y-87927761D01*
X107260625Y-87629375D01*
X106769418Y-87301161D01*
X106336256Y-87215000D01*
X106043744Y-87215000D01*
X105610582Y-87301161D01*
X105119375Y-87629375D01*
X104791161Y-88120582D01*
X104675908Y-88700000D01*
X104791161Y-89279418D01*
X105119375Y-89770625D01*
X105610582Y-90098839D01*
X106043744Y-90185000D01*
X106336256Y-90185000D01*
X106769418Y-90098839D01*
X107260625Y-89770625D01*
X107460000Y-89472239D01*
X107659375Y-89770625D01*
X108150582Y-90098839D01*
X108583744Y-90185000D01*
X108876256Y-90185000D01*
X109309418Y-90098839D01*
X109800625Y-89770625D01*
X110000000Y-89472239D01*
X110199375Y-89770625D01*
X110690582Y-90098839D01*
X111123744Y-90185000D01*
X111416256Y-90185000D01*
X111849418Y-90098839D01*
X112340625Y-89770625D01*
X112553843Y-89451522D01*
X112614817Y-89581358D01*
X113043076Y-89971645D01*
X113453110Y-90141476D01*
X113683000Y-90020155D01*
X113683000Y-88827000D01*
X113663000Y-88827000D01*
X113663000Y-88573000D01*
X113683000Y-88573000D01*
X113683000Y-88553000D01*
X113937000Y-88553000D01*
X113937000Y-88573000D01*
X113957000Y-88573000D01*
X113957000Y-88827000D01*
X113937000Y-88827000D01*
X113937000Y-90020155D01*
X114166890Y-90141476D01*
X114576924Y-89971645D01*
X115005183Y-89581358D01*
X115066157Y-89451522D01*
X115279375Y-89770625D01*
X115770582Y-90098839D01*
X116203744Y-90185000D01*
X116496256Y-90185000D01*
X116929418Y-90098839D01*
X117420625Y-89770625D01*
X117620000Y-89472239D01*
X117819375Y-89770625D01*
X118310582Y-90098839D01*
X118743744Y-90185000D01*
X119036256Y-90185000D01*
X119469418Y-90098839D01*
X119960625Y-89770625D01*
X120160000Y-89472239D01*
X120359375Y-89770625D01*
X120850582Y-90098839D01*
X121283744Y-90185000D01*
X121576256Y-90185000D01*
X122009418Y-90098839D01*
X122500625Y-89770625D01*
X122700000Y-89472239D01*
X122899375Y-89770625D01*
X123390582Y-90098839D01*
X123823744Y-90185000D01*
X124116256Y-90185000D01*
X124549418Y-90098839D01*
X125040625Y-89770625D01*
X125240000Y-89472239D01*
X125439375Y-89770625D01*
X125930582Y-90098839D01*
X126363744Y-90185000D01*
X126656256Y-90185000D01*
X127089418Y-90098839D01*
X127580625Y-89770625D01*
X127780000Y-89472239D01*
X127979375Y-89770625D01*
X128470582Y-90098839D01*
X128903744Y-90185000D01*
X129196256Y-90185000D01*
X129629418Y-90098839D01*
X130120625Y-89770625D01*
X130320000Y-89472239D01*
X130519375Y-89770625D01*
X131010582Y-90098839D01*
X131443744Y-90185000D01*
X131736256Y-90185000D01*
X132169418Y-90098839D01*
X132660625Y-89770625D01*
X132860000Y-89472239D01*
X133059375Y-89770625D01*
X133550582Y-90098839D01*
X133983744Y-90185000D01*
X134276256Y-90185000D01*
X134709418Y-90098839D01*
X135200625Y-89770625D01*
X135400000Y-89472239D01*
X135599375Y-89770625D01*
X136090582Y-90098839D01*
X136523744Y-90185000D01*
X136816256Y-90185000D01*
X137249418Y-90098839D01*
X137740625Y-89770625D01*
X137940000Y-89472239D01*
X138139375Y-89770625D01*
X138630582Y-90098839D01*
X139063744Y-90185000D01*
X139356256Y-90185000D01*
X139789418Y-90098839D01*
X140280625Y-89770625D01*
X140480000Y-89472239D01*
X140679375Y-89770625D01*
X141170582Y-90098839D01*
X141603744Y-90185000D01*
X141896256Y-90185000D01*
X142329418Y-90098839D01*
X142820625Y-89770625D01*
X142832816Y-89752381D01*
X142841843Y-89797765D01*
X142982191Y-90007809D01*
X143192235Y-90148157D01*
X143440000Y-90197440D01*
X145140000Y-90197440D01*
X145387765Y-90148157D01*
X145597809Y-90007809D01*
X145738157Y-89797765D01*
X145787440Y-89550000D01*
X145787440Y-87850000D01*
X145738157Y-87602235D01*
X145597809Y-87392191D01*
X145387765Y-87251843D01*
X145306000Y-87235579D01*
X145306000Y-86224064D01*
X145325904Y-86124000D01*
X145306000Y-86023935D01*
X145247051Y-85727577D01*
X145022495Y-85391505D01*
X144937664Y-85334823D01*
X137506401Y-77903561D01*
X137449716Y-77818726D01*
X137113644Y-77594170D01*
X136817286Y-77535221D01*
X136817284Y-77535221D01*
X136717221Y-77515317D01*
X136617158Y-77535221D01*
X110976062Y-77535221D01*
X101960841Y-68520000D01*
X119685908Y-68520000D01*
X119801161Y-69099418D01*
X120129375Y-69590625D01*
X120620582Y-69918839D01*
X121053744Y-70005000D01*
X121346256Y-70005000D01*
X121779418Y-69918839D01*
X122270625Y-69590625D01*
X122470000Y-69292239D01*
X122669375Y-69590625D01*
X122723103Y-69626525D01*
X122704096Y-69722081D01*
X122762847Y-70017440D01*
X122782950Y-70118504D01*
X123007506Y-70454576D01*
X123092338Y-70511259D01*
X129682741Y-77101663D01*
X129739424Y-77186495D01*
X130075496Y-77411051D01*
X130371854Y-77470000D01*
X130371855Y-77470000D01*
X130471918Y-77489904D01*
X130571982Y-77470000D01*
X141311160Y-77470000D01*
X147066000Y-83224841D01*
X147066001Y-87753867D01*
X147124950Y-88050225D01*
X147256501Y-88247105D01*
X147256500Y-89574067D01*
X145454068Y-91376500D01*
X140174297Y-91376500D01*
X140092999Y-91360329D01*
X140011701Y-91376500D01*
X140011697Y-91376500D01*
X139770906Y-91424396D01*
X139497848Y-91606848D01*
X139451793Y-91675774D01*
X136887775Y-94239793D01*
X136818849Y-94285848D01*
X136772794Y-94354774D01*
X136636397Y-94558906D01*
X136607956Y-94701887D01*
X136596609Y-94694305D01*
X136144000Y-94604275D01*
X135691392Y-94694305D01*
X135307688Y-94950687D01*
X135051305Y-95334391D01*
X134984000Y-95672754D01*
X134984000Y-96351245D01*
X135051305Y-96689608D01*
X135307687Y-97073313D01*
X135691391Y-97329695D01*
X136144000Y-97419725D01*
X136596608Y-97329695D01*
X136779000Y-97207825D01*
X136961391Y-97329695D01*
X137414000Y-97419725D01*
X137865866Y-97329842D01*
X137911235Y-97360157D01*
X138159000Y-97409440D01*
X139209000Y-97409440D01*
X139456765Y-97360157D01*
X139574006Y-97281818D01*
X139574920Y-97282000D01*
X165736925Y-97282000D01*
X165862000Y-97306879D01*
X165987075Y-97282000D01*
X165987080Y-97282000D01*
X166357529Y-97208313D01*
X166777618Y-96927618D01*
X166848471Y-96821579D01*
X167384903Y-96285148D01*
X167662540Y-96170147D01*
X168052147Y-95780540D01*
X168263000Y-95271494D01*
X168263000Y-94720506D01*
X168052147Y-94211460D01*
X167662540Y-93821853D01*
X167153494Y-93611000D01*
X166602506Y-93611000D01*
X166093460Y-93821853D01*
X165703853Y-94211460D01*
X165588852Y-94489097D01*
X165335950Y-94742000D01*
X139574920Y-94742000D01*
X139574006Y-94742182D01*
X139456765Y-94663843D01*
X139209000Y-94614560D01*
X138847872Y-94614560D01*
X140434933Y-93027500D01*
X145714699Y-93027500D01*
X145796000Y-93043672D01*
X145877301Y-93027500D01*
X145877303Y-93027500D01*
X146118094Y-92979604D01*
X146391152Y-92797152D01*
X146437209Y-92728223D01*
X148608226Y-90557207D01*
X148677152Y-90511152D01*
X148859604Y-90238094D01*
X148907500Y-89997303D01*
X148907500Y-89997299D01*
X148923671Y-89916001D01*
X148907500Y-89834703D01*
X148907500Y-88247105D01*
X149039051Y-88050225D01*
X149098000Y-87753867D01*
X149098000Y-82904063D01*
X149117904Y-82803999D01*
X149082038Y-82623688D01*
X149039051Y-82407577D01*
X148814495Y-82071505D01*
X148729664Y-82014823D01*
X147211347Y-80496506D01*
X160159000Y-80496506D01*
X160159000Y-81047494D01*
X160274000Y-81325130D01*
X160274001Y-89282920D01*
X160249121Y-89408000D01*
X160347688Y-89903529D01*
X160557530Y-90217580D01*
X160557532Y-90217582D01*
X160628383Y-90323618D01*
X160734419Y-90394469D01*
X161827530Y-91487581D01*
X161898382Y-91593618D01*
X162318471Y-91874313D01*
X162688920Y-91948000D01*
X162688924Y-91948000D01*
X162813999Y-91972879D01*
X162939074Y-91948000D01*
X165843950Y-91948000D01*
X178288853Y-104392904D01*
X178403853Y-104670540D01*
X178793460Y-105060147D01*
X179302506Y-105271000D01*
X179853494Y-105271000D01*
X180362540Y-105060147D01*
X180752147Y-104670540D01*
X180963000Y-104161494D01*
X180963000Y-103610506D01*
X180752147Y-103101460D01*
X180409683Y-102758996D01*
X188157000Y-102758996D01*
X188157000Y-103489004D01*
X188436362Y-104163444D01*
X188952556Y-104679638D01*
X189626996Y-104959000D01*
X190357004Y-104959000D01*
X191031444Y-104679638D01*
X191547638Y-104163444D01*
X191827000Y-103489004D01*
X191827000Y-102758996D01*
X191547638Y-102084556D01*
X191031444Y-101568362D01*
X190357004Y-101289000D01*
X189626996Y-101289000D01*
X188952556Y-101568362D01*
X188436362Y-102084556D01*
X188157000Y-102758996D01*
X180409683Y-102758996D01*
X180362540Y-102711853D01*
X180084904Y-102596853D01*
X177818051Y-100330000D01*
X203717908Y-100330000D01*
X203833161Y-100909418D01*
X204161375Y-101400625D01*
X204179619Y-101412816D01*
X204134235Y-101421843D01*
X203924191Y-101562191D01*
X203783843Y-101772235D01*
X203734560Y-102020000D01*
X203734560Y-103720000D01*
X203783843Y-103967765D01*
X203924191Y-104177809D01*
X204134235Y-104318157D01*
X204382000Y-104367440D01*
X206082000Y-104367440D01*
X206329765Y-104318157D01*
X206539809Y-104177809D01*
X206680157Y-103967765D01*
X206729440Y-103720000D01*
X206729440Y-102020000D01*
X206680157Y-101772235D01*
X206539809Y-101562191D01*
X206329765Y-101421843D01*
X206284381Y-101412816D01*
X206302625Y-101400625D01*
X206630839Y-100909418D01*
X206746092Y-100330000D01*
X206630839Y-99750582D01*
X206302625Y-99259375D01*
X205811418Y-98931161D01*
X205378256Y-98845000D01*
X205085744Y-98845000D01*
X204652582Y-98931161D01*
X204161375Y-99259375D01*
X203833161Y-99750582D01*
X203717908Y-100330000D01*
X177818051Y-100330000D01*
X172769801Y-95281750D01*
X186118500Y-95281750D01*
X186118500Y-96122310D01*
X186215173Y-96355699D01*
X186393802Y-96534327D01*
X186627191Y-96631000D01*
X187420250Y-96631000D01*
X187579000Y-96472250D01*
X187579000Y-95123000D01*
X186277250Y-95123000D01*
X186118500Y-95281750D01*
X172769801Y-95281750D01*
X171357741Y-93869690D01*
X186118500Y-93869690D01*
X186118500Y-94710250D01*
X186277250Y-94869000D01*
X187579000Y-94869000D01*
X187579000Y-93519750D01*
X187833000Y-93519750D01*
X187833000Y-94869000D01*
X187853000Y-94869000D01*
X187853000Y-95123000D01*
X187833000Y-95123000D01*
X187833000Y-96472250D01*
X187991750Y-96631000D01*
X188784809Y-96631000D01*
X189018198Y-96534327D01*
X189196827Y-96355699D01*
X189230556Y-96274270D01*
X189626590Y-96538891D01*
X190246000Y-96662100D01*
X190865411Y-96538891D01*
X191390523Y-96188023D01*
X191516000Y-96000233D01*
X191641477Y-96188023D01*
X192166590Y-96538891D01*
X192786000Y-96662100D01*
X193405411Y-96538891D01*
X193930523Y-96188023D01*
X194281391Y-95662910D01*
X194373500Y-95199849D01*
X194373500Y-94792150D01*
X194281391Y-94329089D01*
X193930523Y-93803977D01*
X193405410Y-93453109D01*
X192786000Y-93329900D01*
X192166589Y-93453109D01*
X191641477Y-93803977D01*
X191516000Y-93991767D01*
X191390523Y-93803977D01*
X190865410Y-93453109D01*
X190246000Y-93329900D01*
X189626589Y-93453109D01*
X189230556Y-93717729D01*
X189196827Y-93636301D01*
X189018198Y-93457673D01*
X188784809Y-93361000D01*
X187991750Y-93361000D01*
X187833000Y-93519750D01*
X187579000Y-93519750D01*
X187420250Y-93361000D01*
X186627191Y-93361000D01*
X186393802Y-93457673D01*
X186215173Y-93636301D01*
X186118500Y-93869690D01*
X171357741Y-93869690D01*
X167356471Y-89868421D01*
X167285618Y-89762382D01*
X166865529Y-89481687D01*
X166654698Y-89439750D01*
X209451000Y-89439750D01*
X209451000Y-91030310D01*
X209547673Y-91263699D01*
X209726302Y-91442327D01*
X209959691Y-91539000D01*
X211550250Y-91539000D01*
X211709000Y-91380250D01*
X211709000Y-89281000D01*
X211963000Y-89281000D01*
X211963000Y-91380250D01*
X212121750Y-91539000D01*
X213712309Y-91539000D01*
X213945698Y-91442327D01*
X214124327Y-91263699D01*
X214221000Y-91030310D01*
X214221000Y-89439750D01*
X214062250Y-89281000D01*
X211963000Y-89281000D01*
X211709000Y-89281000D01*
X209609750Y-89281000D01*
X209451000Y-89439750D01*
X166654698Y-89439750D01*
X166495080Y-89408000D01*
X166495075Y-89408000D01*
X166370000Y-89383121D01*
X166244925Y-89408000D01*
X163340051Y-89408000D01*
X162814000Y-88881950D01*
X162814000Y-87277690D01*
X209451000Y-87277690D01*
X209451000Y-88868250D01*
X209609750Y-89027000D01*
X211709000Y-89027000D01*
X211709000Y-86927750D01*
X211550250Y-86769000D01*
X209959691Y-86769000D01*
X209726302Y-86865673D01*
X209547673Y-87044301D01*
X209451000Y-87277690D01*
X162814000Y-87277690D01*
X162814000Y-83544506D01*
X183781000Y-83544506D01*
X183781000Y-84095494D01*
X183991853Y-84604540D01*
X184381460Y-84994147D01*
X184890506Y-85205000D01*
X185441494Y-85205000D01*
X185719130Y-85090000D01*
X212438560Y-85090000D01*
X212438560Y-85329000D01*
X212554449Y-85911613D01*
X212884472Y-86405528D01*
X213378387Y-86735551D01*
X213546546Y-86769000D01*
X212121750Y-86769000D01*
X211963000Y-86927750D01*
X211963000Y-89027000D01*
X214062250Y-89027000D01*
X214221000Y-88868250D01*
X214221000Y-87277690D01*
X214124327Y-87044301D01*
X213945698Y-86865673D01*
X213865454Y-86832435D01*
X213961000Y-86851440D01*
X215711000Y-86851440D01*
X216293613Y-86735551D01*
X216566000Y-86553548D01*
X216566000Y-86859995D01*
X216551223Y-86862934D01*
X216097861Y-87165861D01*
X215794934Y-87619223D01*
X215688560Y-88154000D01*
X215688560Y-90154000D01*
X215794934Y-90688777D01*
X216097861Y-91142139D01*
X216551223Y-91445066D01*
X217086000Y-91551440D01*
X218586000Y-91551440D01*
X219120777Y-91445066D01*
X219574139Y-91142139D01*
X219877066Y-90688777D01*
X219983440Y-90154000D01*
X219983440Y-88154000D01*
X219877066Y-87619223D01*
X219574139Y-87165861D01*
X219120777Y-86862934D01*
X219106000Y-86859995D01*
X219106000Y-84865074D01*
X219130879Y-84739999D01*
X219106000Y-84614924D01*
X219106000Y-84614920D01*
X219032313Y-84244471D01*
X218751618Y-83824382D01*
X218645579Y-83753529D01*
X218536470Y-83644420D01*
X218465618Y-83538382D01*
X218045529Y-83257687D01*
X217675080Y-83184000D01*
X217675075Y-83184000D01*
X217550000Y-83159121D01*
X217424925Y-83184000D01*
X217154870Y-83184000D01*
X217117551Y-82996387D01*
X216787528Y-82502472D01*
X216293613Y-82172449D01*
X215711000Y-82056560D01*
X213961000Y-82056560D01*
X213378387Y-82172449D01*
X212884472Y-82502472D01*
X212852715Y-82550000D01*
X185719130Y-82550000D01*
X185441494Y-82435000D01*
X184890506Y-82435000D01*
X184381460Y-82645853D01*
X183991853Y-83035460D01*
X183781000Y-83544506D01*
X162814000Y-83544506D01*
X162814000Y-81325130D01*
X162929000Y-81047494D01*
X162929000Y-80496506D01*
X162718147Y-79987460D01*
X162328540Y-79597853D01*
X161819494Y-79387000D01*
X161268506Y-79387000D01*
X160759460Y-79597853D01*
X160369853Y-79987460D01*
X160159000Y-80496506D01*
X147211347Y-80496506D01*
X143708591Y-76993750D01*
X193791000Y-76993750D01*
X193791000Y-77734310D01*
X193887673Y-77967699D01*
X194066302Y-78146327D01*
X194299691Y-78243000D01*
X195040250Y-78243000D01*
X195199000Y-78084250D01*
X195199000Y-76835000D01*
X193949750Y-76835000D01*
X193791000Y-76993750D01*
X143708591Y-76993750D01*
X142521180Y-75806340D01*
X142464495Y-75721505D01*
X142404908Y-75681690D01*
X193791000Y-75681690D01*
X193791000Y-76422250D01*
X193949750Y-76581000D01*
X195199000Y-76581000D01*
X195199000Y-75331750D01*
X195453000Y-75331750D01*
X195453000Y-76581000D01*
X195473000Y-76581000D01*
X195473000Y-76835000D01*
X195453000Y-76835000D01*
X195453000Y-78084250D01*
X195611750Y-78243000D01*
X196352309Y-78243000D01*
X196585698Y-78146327D01*
X196764327Y-77967699D01*
X196820139Y-77832956D01*
X196996493Y-78009310D01*
X197560670Y-78243000D01*
X198171330Y-78243000D01*
X198735507Y-78009310D01*
X199167310Y-77577507D01*
X199401000Y-77013330D01*
X199401000Y-76402670D01*
X199167310Y-75838493D01*
X198735507Y-75406690D01*
X198171330Y-75173000D01*
X197560670Y-75173000D01*
X196996493Y-75406690D01*
X196820139Y-75583044D01*
X196764327Y-75448301D01*
X196585698Y-75269673D01*
X196352309Y-75173000D01*
X195611750Y-75173000D01*
X195453000Y-75331750D01*
X195199000Y-75331750D01*
X195040250Y-75173000D01*
X194299691Y-75173000D01*
X194066302Y-75269673D01*
X193887673Y-75448301D01*
X193791000Y-75681690D01*
X142404908Y-75681690D01*
X142128423Y-75496949D01*
X141832065Y-75438000D01*
X141832063Y-75438000D01*
X141732000Y-75418096D01*
X141631937Y-75438000D01*
X130892760Y-75438000D01*
X124904656Y-69449897D01*
X125010000Y-69292239D01*
X125209375Y-69590625D01*
X125700582Y-69918839D01*
X126133744Y-70005000D01*
X126328159Y-70005000D01*
X126482335Y-70159176D01*
X126482338Y-70159178D01*
X130581050Y-74257890D01*
X130637735Y-74342725D01*
X130973807Y-74567281D01*
X131270165Y-74626230D01*
X131270166Y-74626230D01*
X131370229Y-74646134D01*
X131470293Y-74626230D01*
X142981964Y-74626230D01*
X143082027Y-74646134D01*
X143182090Y-74626230D01*
X143182092Y-74626230D01*
X143478450Y-74567281D01*
X143814522Y-74342725D01*
X143871207Y-74257890D01*
X145297323Y-72831774D01*
X172457831Y-72831774D01*
X172522131Y-73069611D01*
X173030342Y-73249333D01*
X173568644Y-73220892D01*
X173933869Y-73069611D01*
X173998169Y-72831774D01*
X173228000Y-72061605D01*
X172457831Y-72831774D01*
X145297323Y-72831774D01*
X152872591Y-65256506D01*
X158381000Y-65256506D01*
X158381000Y-65807494D01*
X158496001Y-66085132D01*
X158496000Y-70188260D01*
X158496000Y-70820870D01*
X158381000Y-71098506D01*
X158381000Y-71649494D01*
X158591853Y-72158540D01*
X158981460Y-72548147D01*
X159490506Y-72759000D01*
X160041494Y-72759000D01*
X160550540Y-72548147D01*
X160940147Y-72158540D01*
X161136565Y-71684342D01*
X171860667Y-71684342D01*
X171889108Y-72222644D01*
X172040389Y-72587869D01*
X172278226Y-72652169D01*
X173048395Y-71882000D01*
X173407605Y-71882000D01*
X174177774Y-72652169D01*
X174415611Y-72587869D01*
X174595333Y-72079658D01*
X174566892Y-71541356D01*
X174415611Y-71176131D01*
X174177774Y-71111831D01*
X173407605Y-71882000D01*
X173048395Y-71882000D01*
X172278226Y-71111831D01*
X172040389Y-71176131D01*
X171860667Y-71684342D01*
X161136565Y-71684342D01*
X161151000Y-71649494D01*
X161151000Y-71098506D01*
X161082125Y-70932226D01*
X172457831Y-70932226D01*
X173228000Y-71702395D01*
X173998169Y-70932226D01*
X173933869Y-70694389D01*
X173425658Y-70514667D01*
X172887356Y-70543108D01*
X172522131Y-70694389D01*
X172457831Y-70932226D01*
X161082125Y-70932226D01*
X161036000Y-70820870D01*
X161036000Y-66085130D01*
X161151000Y-65807494D01*
X161151000Y-65256506D01*
X160940147Y-64747460D01*
X160550540Y-64357853D01*
X160041494Y-64147000D01*
X159490506Y-64147000D01*
X158981460Y-64357853D01*
X158591853Y-64747460D01*
X158381000Y-65256506D01*
X152872591Y-65256506D01*
X158586823Y-59542274D01*
X158671655Y-59485591D01*
X158896211Y-59149519D01*
X158955160Y-58853161D01*
X158955160Y-58853160D01*
X158975064Y-58753096D01*
X158955160Y-58653032D01*
X158955160Y-57172506D01*
X159209160Y-56792369D01*
X159463160Y-57172507D01*
X159463161Y-61573092D01*
X159443256Y-61673160D01*
X159497177Y-61944235D01*
X159522110Y-62069583D01*
X159746666Y-62405655D01*
X159831498Y-62462338D01*
X166793000Y-69423841D01*
X166793000Y-69611526D01*
X166999286Y-70109546D01*
X167380454Y-70490714D01*
X167878474Y-70697000D01*
X168417526Y-70697000D01*
X168915546Y-70490714D01*
X169296714Y-70109546D01*
X169503000Y-69611526D01*
X169503000Y-69072474D01*
X169296714Y-68574454D01*
X168915546Y-68193286D01*
X168417526Y-67987000D01*
X168229841Y-67987000D01*
X161495160Y-61252320D01*
X161495160Y-57172506D01*
X161749160Y-56792369D01*
X161749161Y-59770080D01*
X161724281Y-59895160D01*
X161822848Y-60390689D01*
X162032690Y-60704740D01*
X162032692Y-60704742D01*
X162103543Y-60810778D01*
X162209579Y-60881629D01*
X168939531Y-67611582D01*
X169010382Y-67717618D01*
X169430471Y-67998313D01*
X169800920Y-68072000D01*
X169800924Y-68072000D01*
X169926000Y-68096879D01*
X170051076Y-68072000D01*
X172753265Y-68072000D01*
X172958474Y-68157000D01*
X173497526Y-68157000D01*
X173995546Y-67950714D01*
X174376714Y-67569546D01*
X174583000Y-67071526D01*
X174583000Y-66532474D01*
X174438242Y-66182996D01*
X182823000Y-66182996D01*
X182823000Y-66913004D01*
X183102362Y-67587444D01*
X183618556Y-68103638D01*
X184292996Y-68383000D01*
X185023004Y-68383000D01*
X185697444Y-68103638D01*
X186213638Y-67587444D01*
X186473614Y-66959805D01*
X205729805Y-66959805D01*
X205962358Y-67521258D01*
X206453224Y-68042492D01*
X207106193Y-68336203D01*
X207391000Y-68219858D01*
X207391000Y-66675000D01*
X207645000Y-66675000D01*
X207645000Y-68219858D01*
X207929807Y-68336203D01*
X208582776Y-68042492D01*
X209073642Y-67521258D01*
X209306195Y-66959805D01*
X209189432Y-66675000D01*
X207645000Y-66675000D01*
X207391000Y-66675000D01*
X205846568Y-66675000D01*
X205729805Y-66959805D01*
X186473614Y-66959805D01*
X186493000Y-66913004D01*
X186493000Y-66182996D01*
X186473615Y-66136195D01*
X205729805Y-66136195D01*
X205846568Y-66421000D01*
X207391000Y-66421000D01*
X207391000Y-64876142D01*
X207645000Y-64876142D01*
X207645000Y-66421000D01*
X209189432Y-66421000D01*
X209306195Y-66136195D01*
X209073642Y-65574742D01*
X208582776Y-65053508D01*
X207929807Y-64759797D01*
X207645000Y-64876142D01*
X207391000Y-64876142D01*
X207106193Y-64759797D01*
X206453224Y-65053508D01*
X205962358Y-65574742D01*
X205729805Y-66136195D01*
X186473615Y-66136195D01*
X186213638Y-65508556D01*
X185697444Y-64992362D01*
X185023004Y-64713000D01*
X184292996Y-64713000D01*
X183618556Y-64992362D01*
X183102362Y-65508556D01*
X182823000Y-66182996D01*
X174438242Y-66182996D01*
X174376714Y-66034454D01*
X173995546Y-65653286D01*
X173816075Y-65578947D01*
X173624422Y-65450889D01*
X173228000Y-65372036D01*
X172831577Y-65450889D01*
X172710186Y-65532000D01*
X170452051Y-65532000D01*
X164289160Y-59369110D01*
X164289160Y-56792369D01*
X164304705Y-56769105D01*
X164327661Y-56846667D01*
X164669216Y-57268648D01*
X165146257Y-57527800D01*
X165217885Y-57541983D01*
X165432160Y-57419329D01*
X165432160Y-55076420D01*
X165686160Y-55076420D01*
X165686160Y-57419329D01*
X165900435Y-57541983D01*
X165972063Y-57527800D01*
X166203262Y-57402202D01*
X166001000Y-57890506D01*
X166001000Y-58441494D01*
X166211853Y-58950540D01*
X166601460Y-59340147D01*
X167110506Y-59551000D01*
X167661494Y-59551000D01*
X168170540Y-59340147D01*
X168560147Y-58950540D01*
X168675148Y-58672902D01*
X171497582Y-55850469D01*
X171603618Y-55779618D01*
X171884313Y-55359529D01*
X171958000Y-54989080D01*
X171958000Y-54989076D01*
X171958001Y-54989071D01*
X171958001Y-56369948D01*
X169621212Y-58706738D01*
X169343574Y-58821739D01*
X168953967Y-59211346D01*
X168743114Y-59720392D01*
X168743114Y-60271380D01*
X168953967Y-60780426D01*
X169343574Y-61170033D01*
X169852620Y-61380886D01*
X170403608Y-61380886D01*
X170912654Y-61170033D01*
X171302261Y-60780426D01*
X171417262Y-60502788D01*
X174037581Y-57882469D01*
X174143618Y-57811618D01*
X174333260Y-57527800D01*
X174424313Y-57391529D01*
X174439486Y-57315247D01*
X174498000Y-57021080D01*
X174498000Y-57021076D01*
X174522879Y-56896000D01*
X174498000Y-56770924D01*
X174498000Y-46902000D01*
X201448560Y-46902000D01*
X201448560Y-48602000D01*
X201497843Y-48849765D01*
X201638191Y-49059809D01*
X201848235Y-49200157D01*
X202096000Y-49249440D01*
X203796000Y-49249440D01*
X204043765Y-49200157D01*
X204253809Y-49059809D01*
X204394157Y-48849765D01*
X204414739Y-48746292D01*
X204719076Y-49023645D01*
X205129110Y-49193476D01*
X205359000Y-49072155D01*
X205359000Y-47879000D01*
X205613000Y-47879000D01*
X205613000Y-49072155D01*
X205842890Y-49193476D01*
X206252924Y-49023645D01*
X206681183Y-48633358D01*
X206927486Y-48108892D01*
X206806819Y-47879000D01*
X205613000Y-47879000D01*
X205359000Y-47879000D01*
X205339000Y-47879000D01*
X205339000Y-47625000D01*
X205359000Y-47625000D01*
X205359000Y-46431845D01*
X205613000Y-46431845D01*
X205613000Y-47625000D01*
X206806819Y-47625000D01*
X206927486Y-47395108D01*
X206681183Y-46870642D01*
X206252924Y-46480355D01*
X205842890Y-46310524D01*
X205613000Y-46431845D01*
X205359000Y-46431845D01*
X205129110Y-46310524D01*
X204719076Y-46480355D01*
X204414739Y-46757708D01*
X204394157Y-46654235D01*
X204253809Y-46444191D01*
X204043765Y-46303843D01*
X203796000Y-46254560D01*
X202096000Y-46254560D01*
X201848235Y-46303843D01*
X201638191Y-46444191D01*
X201497843Y-46654235D01*
X201448560Y-46902000D01*
X174498000Y-46902000D01*
X174498000Y-25410239D01*
X174511843Y-25389522D01*
X174572817Y-25519358D01*
X175001076Y-25909645D01*
X175411110Y-26079476D01*
X175641000Y-25958155D01*
X175641000Y-24765000D01*
X175621000Y-24765000D01*
X175621000Y-24511000D01*
X175641000Y-24511000D01*
X175641000Y-23317845D01*
X175895000Y-23317845D01*
X175895000Y-24511000D01*
X175915000Y-24511000D01*
X175915000Y-24765000D01*
X175895000Y-24765000D01*
X175895000Y-25958155D01*
X176124890Y-26079476D01*
X176534924Y-25909645D01*
X176839261Y-25632292D01*
X176859843Y-25735765D01*
X177000191Y-25945809D01*
X177210235Y-26086157D01*
X177458000Y-26135440D01*
X179158000Y-26135440D01*
X179405765Y-26086157D01*
X179615809Y-25945809D01*
X179756157Y-25735765D01*
X179805440Y-25488000D01*
X179805440Y-23788000D01*
X201194560Y-23788000D01*
X201194560Y-25488000D01*
X201243843Y-25735765D01*
X201384191Y-25945809D01*
X201422001Y-25971073D01*
X201422001Y-26632921D01*
X201397121Y-26758000D01*
X201495688Y-27253529D01*
X201705530Y-27567580D01*
X201705532Y-27567582D01*
X201776383Y-27673618D01*
X201882419Y-27744469D01*
X210820000Y-36682051D01*
X210820001Y-72879948D01*
X204725098Y-78974852D01*
X204447460Y-79089853D01*
X204057853Y-79479460D01*
X203847000Y-79988506D01*
X203847000Y-80539494D01*
X204057853Y-81048540D01*
X204447460Y-81438147D01*
X204956506Y-81649000D01*
X205507494Y-81649000D01*
X206016540Y-81438147D01*
X206406147Y-81048540D01*
X206521148Y-80770902D01*
X212899582Y-74392469D01*
X213005618Y-74321618D01*
X213286313Y-73901529D01*
X213360000Y-73531080D01*
X213360000Y-73531076D01*
X213384879Y-73406000D01*
X213360000Y-73280924D01*
X213360000Y-36281074D01*
X213384879Y-36155999D01*
X213360000Y-36030924D01*
X213360000Y-36030920D01*
X213286313Y-35660471D01*
X213005618Y-35240382D01*
X212899582Y-35169531D01*
X203962000Y-26231950D01*
X203962000Y-25971072D01*
X203999809Y-25945809D01*
X204140157Y-25735765D01*
X204149184Y-25690381D01*
X204161375Y-25708625D01*
X204652582Y-26036839D01*
X205085744Y-26123000D01*
X205378256Y-26123000D01*
X205811418Y-26036839D01*
X206302625Y-25708625D01*
X206630839Y-25217418D01*
X206746092Y-24638000D01*
X206630839Y-24058582D01*
X206302625Y-23567375D01*
X205811418Y-23239161D01*
X205378256Y-23153000D01*
X205085744Y-23153000D01*
X204652582Y-23239161D01*
X204161375Y-23567375D01*
X204149184Y-23585619D01*
X204140157Y-23540235D01*
X203999809Y-23330191D01*
X203789765Y-23189843D01*
X203542000Y-23140560D01*
X201842000Y-23140560D01*
X201594235Y-23189843D01*
X201384191Y-23330191D01*
X201243843Y-23540235D01*
X201194560Y-23788000D01*
X179805440Y-23788000D01*
X179756157Y-23540235D01*
X179615809Y-23330191D01*
X179405765Y-23189843D01*
X179158000Y-23140560D01*
X177458000Y-23140560D01*
X177210235Y-23189843D01*
X177000191Y-23330191D01*
X176859843Y-23540235D01*
X176839261Y-23643708D01*
X176534924Y-23366355D01*
X176124890Y-23196524D01*
X175895000Y-23317845D01*
X175641000Y-23317845D01*
X175411110Y-23196524D01*
X175001076Y-23366355D01*
X174572817Y-23756642D01*
X174511843Y-23886478D01*
X174298625Y-23567375D01*
X173807418Y-23239161D01*
X173374256Y-23153000D01*
X173081744Y-23153000D01*
X172648582Y-23239161D01*
X172157375Y-23567375D01*
X171958000Y-23865761D01*
X171758625Y-23567375D01*
X171267418Y-23239161D01*
X170834256Y-23153000D01*
X170541744Y-23153000D01*
X170108582Y-23239161D01*
X169617375Y-23567375D01*
X169289161Y-24058582D01*
X169173908Y-24638000D01*
X169289161Y-25217418D01*
X169418001Y-25410241D01*
X169418000Y-54337949D01*
X166879098Y-56876852D01*
X166709299Y-56947185D01*
X166790659Y-56846667D01*
X166944730Y-56326100D01*
X166944730Y-55076420D01*
X165686160Y-55076420D01*
X165432160Y-55076420D01*
X165412160Y-55076420D01*
X165412160Y-54822420D01*
X165432160Y-54822420D01*
X165432160Y-52479511D01*
X165686160Y-52479511D01*
X165686160Y-54822420D01*
X166944730Y-54822420D01*
X166944730Y-53572740D01*
X166790659Y-53052173D01*
X166449104Y-52630192D01*
X165972063Y-52371040D01*
X165900435Y-52356857D01*
X165686160Y-52479511D01*
X165432160Y-52479511D01*
X165217885Y-52356857D01*
X165146257Y-52371040D01*
X164669216Y-52630192D01*
X164327661Y-53052173D01*
X164304705Y-53129735D01*
X164018100Y-52700800D01*
X163559782Y-52394562D01*
X163019160Y-52287026D01*
X162478539Y-52394562D01*
X162020221Y-52700800D01*
X161749161Y-53106471D01*
X161478100Y-52700800D01*
X161019782Y-52394562D01*
X160479160Y-52287026D01*
X159938539Y-52394562D01*
X159480221Y-52700800D01*
X159209161Y-53106471D01*
X158938100Y-52700800D01*
X158479782Y-52394562D01*
X157939160Y-52287026D01*
X157398539Y-52394562D01*
X156940221Y-52700800D01*
X156653615Y-53129736D01*
X156630659Y-53052173D01*
X156289104Y-52630192D01*
X155812063Y-52371040D01*
X155740435Y-52356857D01*
X155526160Y-52479511D01*
X155526160Y-54822420D01*
X155546160Y-54822420D01*
X155546160Y-55076420D01*
X155526160Y-55076420D01*
X155526160Y-57419329D01*
X155740435Y-57541983D01*
X155812063Y-57527800D01*
X156289104Y-57268648D01*
X156630659Y-56846667D01*
X156653615Y-56769104D01*
X156923161Y-57172508D01*
X156923161Y-58332254D01*
X153875160Y-61380255D01*
X153875160Y-57172506D01*
X154144705Y-56769105D01*
X154167661Y-56846667D01*
X154509216Y-57268648D01*
X154986257Y-57527800D01*
X155057885Y-57541983D01*
X155272160Y-57419329D01*
X155272160Y-55076420D01*
X155252160Y-55076420D01*
X155252160Y-54822420D01*
X155272160Y-54822420D01*
X155272160Y-52479511D01*
X155057885Y-52356857D01*
X154986257Y-52371040D01*
X154509216Y-52630192D01*
X154167661Y-53052173D01*
X154144705Y-53129735D01*
X153858100Y-52700800D01*
X153399782Y-52394562D01*
X152859160Y-52287026D01*
X152318539Y-52394562D01*
X151860221Y-52700800D01*
X151589161Y-53106471D01*
X151318100Y-52700800D01*
X150859782Y-52394562D01*
X150319160Y-52287026D01*
X149778539Y-52394562D01*
X149320221Y-52700800D01*
X149049161Y-53106471D01*
X148778100Y-52700800D01*
X148319782Y-52394562D01*
X147779160Y-52287026D01*
X147238539Y-52394562D01*
X146780221Y-52700800D01*
X146509161Y-53106471D01*
X146238100Y-52700800D01*
X145779782Y-52394562D01*
X145239160Y-52287026D01*
X144698539Y-52394562D01*
X144240221Y-52700800D01*
X143969161Y-53106471D01*
X143698100Y-52700800D01*
X143239782Y-52394562D01*
X142699160Y-52287026D01*
X142158539Y-52394562D01*
X141700221Y-52700800D01*
X141429161Y-53106471D01*
X141158100Y-52700800D01*
X140699782Y-52394562D01*
X140159160Y-52287026D01*
X139618539Y-52394562D01*
X139160221Y-52700800D01*
X138889161Y-53106471D01*
X138618100Y-52700800D01*
X138159782Y-52394562D01*
X137619160Y-52287026D01*
X137078539Y-52394562D01*
X136620221Y-52700800D01*
X136349161Y-53106471D01*
X136078100Y-52700800D01*
X135619782Y-52394562D01*
X135079160Y-52287026D01*
X134538539Y-52394562D01*
X134080221Y-52700800D01*
X133809161Y-53106471D01*
X133538100Y-52700800D01*
X133079782Y-52394562D01*
X132539160Y-52287026D01*
X131998539Y-52394562D01*
X131540221Y-52700800D01*
X131269161Y-53106471D01*
X130998100Y-52700800D01*
X130539782Y-52394562D01*
X129999160Y-52287026D01*
X129458539Y-52394562D01*
X129000221Y-52700800D01*
X128713615Y-53129736D01*
X128690659Y-53052173D01*
X128349104Y-52630192D01*
X127872063Y-52371040D01*
X127800435Y-52356857D01*
X127586160Y-52479511D01*
X127586160Y-54822420D01*
X127606160Y-54822420D01*
X127606160Y-55076420D01*
X127586160Y-55076420D01*
X127586160Y-57419329D01*
X127800435Y-57541983D01*
X127872063Y-57527800D01*
X128349104Y-57268648D01*
X128690659Y-56846667D01*
X128713615Y-56769104D01*
X129000220Y-57198039D01*
X129458538Y-57504278D01*
X129999160Y-57611814D01*
X130539781Y-57504278D01*
X130998099Y-57198040D01*
X131269160Y-56792369D01*
X131523160Y-57172507D01*
X131523161Y-66919998D01*
X131408159Y-67035000D01*
X131213744Y-67035000D01*
X130780582Y-67121161D01*
X130289375Y-67449375D01*
X130090000Y-67747761D01*
X129890625Y-67449375D01*
X129399418Y-67121161D01*
X128966256Y-67035000D01*
X128673744Y-67035000D01*
X128240582Y-67121161D01*
X127749375Y-67449375D01*
X127550000Y-67747761D01*
X127350625Y-67449375D01*
X126859418Y-67121161D01*
X126426256Y-67035000D01*
X126133744Y-67035000D01*
X125700582Y-67121161D01*
X125209375Y-67449375D01*
X125010000Y-67747761D01*
X124810625Y-67449375D01*
X124319418Y-67121161D01*
X123886256Y-67035000D01*
X123593744Y-67035000D01*
X123160582Y-67121161D01*
X122669375Y-67449375D01*
X122470000Y-67747761D01*
X122270625Y-67449375D01*
X121779418Y-67121161D01*
X121346256Y-67035000D01*
X121053744Y-67035000D01*
X120620582Y-67121161D01*
X120129375Y-67449375D01*
X119801161Y-67940582D01*
X119685908Y-68520000D01*
X101960841Y-68520000D01*
X97836233Y-64395393D01*
X98095909Y-64343740D01*
X98570577Y-64026577D01*
X98806000Y-63674242D01*
X99041423Y-64026577D01*
X99516091Y-64343740D01*
X99934667Y-64427000D01*
X100217333Y-64427000D01*
X100635909Y-64343740D01*
X101110577Y-64026577D01*
X101346000Y-63674242D01*
X101581423Y-64026577D01*
X102056091Y-64343740D01*
X102474667Y-64427000D01*
X102757333Y-64427000D01*
X103175909Y-64343740D01*
X103650577Y-64026577D01*
X103906947Y-63642892D01*
X104003611Y-63847134D01*
X104418577Y-64223041D01*
X104806961Y-64383904D01*
X105029000Y-64261915D01*
X105029000Y-63119000D01*
X105283000Y-63119000D01*
X105283000Y-64261915D01*
X105505039Y-64383904D01*
X105893423Y-64223041D01*
X106308389Y-63847134D01*
X106547914Y-63341041D01*
X106426629Y-63119000D01*
X105283000Y-63119000D01*
X105029000Y-63119000D01*
X105009000Y-63119000D01*
X105009000Y-62865000D01*
X105029000Y-62865000D01*
X105029000Y-61722085D01*
X105283000Y-61722085D01*
X105283000Y-62865000D01*
X106426629Y-62865000D01*
X106547914Y-62642959D01*
X106308389Y-62136866D01*
X105893423Y-61760959D01*
X105505039Y-61600096D01*
X105283000Y-61722085D01*
X105029000Y-61722085D01*
X104806961Y-61600096D01*
X104418577Y-61760959D01*
X104003611Y-62136866D01*
X103906947Y-62341108D01*
X103650577Y-61957423D01*
X103175909Y-61640260D01*
X102757333Y-61557000D01*
X102474667Y-61557000D01*
X102056091Y-61640260D01*
X101581423Y-61957423D01*
X101346000Y-62309758D01*
X101110577Y-61957423D01*
X100635909Y-61640260D01*
X100217333Y-61557000D01*
X99934667Y-61557000D01*
X99516091Y-61640260D01*
X99041423Y-61957423D01*
X98806000Y-62309758D01*
X98570577Y-61957423D01*
X98095909Y-61640260D01*
X97677333Y-61557000D01*
X97394667Y-61557000D01*
X96976091Y-61640260D01*
X96501423Y-61957423D01*
X96266000Y-62309758D01*
X96030577Y-61957423D01*
X95555909Y-61640260D01*
X95137333Y-61557000D01*
X94854667Y-61557000D01*
X94436091Y-61640260D01*
X93961423Y-61957423D01*
X93726000Y-62309758D01*
X93490577Y-61957423D01*
X93015909Y-61640260D01*
X92597333Y-61557000D01*
X92314667Y-61557000D01*
X91896091Y-61640260D01*
X91421423Y-61957423D01*
X91186000Y-62309758D01*
X90950577Y-61957423D01*
X90475909Y-61640260D01*
X90057333Y-61557000D01*
X89774667Y-61557000D01*
X89356091Y-61640260D01*
X88881423Y-61957423D01*
X88646000Y-62309758D01*
X88410577Y-61957423D01*
X87935909Y-61640260D01*
X87517333Y-61557000D01*
X87234667Y-61557000D01*
X86816091Y-61640260D01*
X86341423Y-61957423D01*
X86260785Y-62078106D01*
X86234157Y-61944235D01*
X86093809Y-61734191D01*
X85883765Y-61593843D01*
X85636000Y-61544560D01*
X84036000Y-61544560D01*
X83788235Y-61593843D01*
X83578191Y-61734191D01*
X83437843Y-61944235D01*
X83388560Y-62192000D01*
X50272051Y-62192000D01*
X49365761Y-61285710D01*
X49534924Y-61215645D01*
X49839261Y-60938292D01*
X49859843Y-61041765D01*
X50000191Y-61251809D01*
X50210235Y-61392157D01*
X50458000Y-61441440D01*
X52158000Y-61441440D01*
X52405765Y-61392157D01*
X52615809Y-61251809D01*
X52756157Y-61041765D01*
X52805440Y-60794000D01*
X52805440Y-59928474D01*
X117517000Y-59928474D01*
X117517000Y-60467526D01*
X117723286Y-60965546D01*
X118104454Y-61346714D01*
X118602474Y-61553000D01*
X119141526Y-61553000D01*
X119639546Y-61346714D01*
X120020714Y-60965546D01*
X120227000Y-60467526D01*
X120227000Y-59928474D01*
X120020714Y-59430454D01*
X119639546Y-59049286D01*
X119141526Y-58843000D01*
X118602474Y-58843000D01*
X118104454Y-59049286D01*
X117723286Y-59430454D01*
X117517000Y-59928474D01*
X52805440Y-59928474D01*
X52805440Y-59094000D01*
X52756157Y-58846235D01*
X52615809Y-58636191D01*
X52405765Y-58495843D01*
X52158000Y-58446560D01*
X50458000Y-58446560D01*
X50210235Y-58495843D01*
X50000191Y-58636191D01*
X49859843Y-58846235D01*
X49839261Y-58949708D01*
X49534924Y-58672355D01*
X49124890Y-58502524D01*
X48895000Y-58623845D01*
X48895000Y-59817000D01*
X48915000Y-59817000D01*
X48915000Y-60071000D01*
X48895000Y-60071000D01*
X48895000Y-60091000D01*
X48641000Y-60091000D01*
X48641000Y-60071000D01*
X48621000Y-60071000D01*
X48621000Y-59817000D01*
X48641000Y-59817000D01*
X48641000Y-58623845D01*
X48411110Y-58502524D01*
X48001076Y-58672355D01*
X47572817Y-59062642D01*
X47511843Y-59192478D01*
X47298625Y-58873375D01*
X46807418Y-58545161D01*
X46374256Y-58459000D01*
X46081744Y-58459000D01*
X45648582Y-58545161D01*
X45157375Y-58873375D01*
X44958000Y-59171761D01*
X44758625Y-58873375D01*
X44267418Y-58545161D01*
X43834256Y-58459000D01*
X43541744Y-58459000D01*
X43108582Y-58545161D01*
X42617375Y-58873375D01*
X42289161Y-59364582D01*
X42173908Y-59944000D01*
X18515000Y-59944000D01*
X18515000Y-57388474D01*
X112437000Y-57388474D01*
X112437000Y-57927526D01*
X112643286Y-58425546D01*
X113024454Y-58806714D01*
X113522474Y-59013000D01*
X114061526Y-59013000D01*
X114559546Y-58806714D01*
X114940714Y-58425546D01*
X115147000Y-57927526D01*
X115147000Y-57388474D01*
X114940714Y-56890454D01*
X114559546Y-56509286D01*
X114061526Y-56303000D01*
X113522474Y-56303000D01*
X113024454Y-56509286D01*
X112643286Y-56890454D01*
X112437000Y-57388474D01*
X18515000Y-57388474D01*
X18515000Y-36692000D01*
X21312560Y-36692000D01*
X21312560Y-38492000D01*
X21361843Y-38739765D01*
X21502191Y-38949809D01*
X21712235Y-39090157D01*
X21844000Y-39116366D01*
X21844000Y-39153936D01*
X21824096Y-39254000D01*
X21844000Y-39354063D01*
X21844000Y-39354064D01*
X21902949Y-39650422D01*
X22127505Y-39986495D01*
X22212340Y-40043180D01*
X38188820Y-56019660D01*
X38245505Y-56104495D01*
X38519568Y-56287618D01*
X38581575Y-56329050D01*
X38581576Y-56329050D01*
X38581577Y-56329051D01*
X38877935Y-56388000D01*
X38977999Y-56407904D01*
X39078063Y-56388000D01*
X83789010Y-56388000D01*
X83801423Y-56406577D01*
X84276091Y-56723740D01*
X84694667Y-56807000D01*
X84977333Y-56807000D01*
X85395909Y-56723740D01*
X85870577Y-56406577D01*
X86106000Y-56054242D01*
X86341423Y-56406577D01*
X86816091Y-56723740D01*
X87234667Y-56807000D01*
X87517333Y-56807000D01*
X87935909Y-56723740D01*
X88410577Y-56406577D01*
X88646000Y-56054242D01*
X88881423Y-56406577D01*
X89356091Y-56723740D01*
X89774667Y-56807000D01*
X90057333Y-56807000D01*
X90475909Y-56723740D01*
X90950577Y-56406577D01*
X91186000Y-56054242D01*
X91421423Y-56406577D01*
X91896091Y-56723740D01*
X92314667Y-56807000D01*
X92597333Y-56807000D01*
X93015909Y-56723740D01*
X93490577Y-56406577D01*
X93726000Y-56054242D01*
X93961423Y-56406577D01*
X94436091Y-56723740D01*
X94854667Y-56807000D01*
X95137333Y-56807000D01*
X95555909Y-56723740D01*
X96030577Y-56406577D01*
X96266000Y-56054242D01*
X96501423Y-56406577D01*
X96976091Y-56723740D01*
X97394667Y-56807000D01*
X97677333Y-56807000D01*
X98095909Y-56723740D01*
X98570577Y-56406577D01*
X98806000Y-56054242D01*
X99041423Y-56406577D01*
X99516091Y-56723740D01*
X99934667Y-56807000D01*
X100217333Y-56807000D01*
X100635909Y-56723740D01*
X101110577Y-56406577D01*
X101346000Y-56054242D01*
X101581423Y-56406577D01*
X102056091Y-56723740D01*
X102474667Y-56807000D01*
X102757333Y-56807000D01*
X103175909Y-56723740D01*
X103650577Y-56406577D01*
X103886000Y-56054242D01*
X104121423Y-56406577D01*
X104596091Y-56723740D01*
X105014667Y-56807000D01*
X105297333Y-56807000D01*
X105715909Y-56723740D01*
X106190577Y-56406577D01*
X106416957Y-56067774D01*
X118101831Y-56067774D01*
X118166131Y-56305611D01*
X118674342Y-56485333D01*
X119212644Y-56456892D01*
X119577869Y-56305611D01*
X119642169Y-56067774D01*
X118872000Y-55297605D01*
X118101831Y-56067774D01*
X106416957Y-56067774D01*
X106507740Y-55931909D01*
X106619113Y-55372000D01*
X106529273Y-54920342D01*
X117504667Y-54920342D01*
X117533108Y-55458644D01*
X117684389Y-55823869D01*
X117922226Y-55888169D01*
X118692395Y-55118000D01*
X119051605Y-55118000D01*
X119821774Y-55888169D01*
X120059611Y-55823869D01*
X120239333Y-55315658D01*
X120226693Y-55076420D01*
X126073590Y-55076420D01*
X126073590Y-56326100D01*
X126227661Y-56846667D01*
X126569216Y-57268648D01*
X127046257Y-57527800D01*
X127117885Y-57541983D01*
X127332160Y-57419329D01*
X127332160Y-55076420D01*
X126073590Y-55076420D01*
X120226693Y-55076420D01*
X120210892Y-54777356D01*
X120059611Y-54412131D01*
X119821774Y-54347831D01*
X119051605Y-55118000D01*
X118692395Y-55118000D01*
X117922226Y-54347831D01*
X117684389Y-54412131D01*
X117504667Y-54920342D01*
X106529273Y-54920342D01*
X106507740Y-54812091D01*
X106190577Y-54337423D01*
X105937356Y-54168226D01*
X118101831Y-54168226D01*
X118872000Y-54938395D01*
X119642169Y-54168226D01*
X119577869Y-53930389D01*
X119069658Y-53750667D01*
X118531356Y-53779108D01*
X118166131Y-53930389D01*
X118101831Y-54168226D01*
X105937356Y-54168226D01*
X105715909Y-54020260D01*
X105297333Y-53937000D01*
X105014667Y-53937000D01*
X104596091Y-54020260D01*
X104121423Y-54337423D01*
X103886000Y-54689758D01*
X103650577Y-54337423D01*
X103175909Y-54020260D01*
X102757333Y-53937000D01*
X102474667Y-53937000D01*
X102056091Y-54020260D01*
X101581423Y-54337423D01*
X101346000Y-54689758D01*
X101110577Y-54337423D01*
X100635909Y-54020260D01*
X100217333Y-53937000D01*
X99934667Y-53937000D01*
X99516091Y-54020260D01*
X99041423Y-54337423D01*
X98806000Y-54689758D01*
X98570577Y-54337423D01*
X98124612Y-54039438D01*
X98591310Y-53572740D01*
X126073590Y-53572740D01*
X126073590Y-54822420D01*
X127332160Y-54822420D01*
X127332160Y-52479511D01*
X127117885Y-52356857D01*
X127046257Y-52371040D01*
X126569216Y-52630192D01*
X126227661Y-53052173D01*
X126073590Y-53572740D01*
X98591310Y-53572740D01*
X102888050Y-49276000D01*
X114715051Y-49276000D01*
X114857469Y-49991981D01*
X115263039Y-50598961D01*
X115870019Y-51004531D01*
X116405273Y-51111000D01*
X116766727Y-51111000D01*
X117301981Y-51004531D01*
X117908961Y-50598961D01*
X118314531Y-49991981D01*
X118456949Y-49276000D01*
X138337051Y-49276000D01*
X138479469Y-49991981D01*
X138885039Y-50598961D01*
X139492019Y-51004531D01*
X140027273Y-51111000D01*
X140388727Y-51111000D01*
X140923981Y-51004531D01*
X141530961Y-50598961D01*
X141936531Y-49991981D01*
X142078949Y-49276000D01*
X141936531Y-48560019D01*
X141530961Y-47953039D01*
X140923981Y-47547469D01*
X140388727Y-47441000D01*
X140027273Y-47441000D01*
X139492019Y-47547469D01*
X138885039Y-47953039D01*
X138479469Y-48560019D01*
X138337051Y-49276000D01*
X118456949Y-49276000D01*
X118314531Y-48560019D01*
X117908961Y-47953039D01*
X117301981Y-47547469D01*
X116766727Y-47441000D01*
X116405273Y-47441000D01*
X115870019Y-47547469D01*
X115263039Y-47953039D01*
X114857469Y-48560019D01*
X114715051Y-49276000D01*
X102888050Y-49276000D01*
X113302051Y-38862000D01*
X125837518Y-38862000D01*
X125896191Y-38949809D01*
X126106235Y-39090157D01*
X126354000Y-39139440D01*
X128154000Y-39139440D01*
X128401765Y-39090157D01*
X128611809Y-38949809D01*
X128752157Y-38739765D01*
X128755275Y-38724092D01*
X128924493Y-38893310D01*
X129488670Y-39127000D01*
X130099330Y-39127000D01*
X130663507Y-38893310D01*
X131095310Y-38461507D01*
X131329000Y-37897330D01*
X131329000Y-37286670D01*
X131095310Y-36722493D01*
X130663507Y-36290690D01*
X130099330Y-36057000D01*
X129488670Y-36057000D01*
X128924493Y-36290690D01*
X128755275Y-36459908D01*
X128752157Y-36444235D01*
X128611809Y-36234191D01*
X128401765Y-36093843D01*
X128154000Y-36044560D01*
X126354000Y-36044560D01*
X126106235Y-36093843D01*
X125896191Y-36234191D01*
X125837518Y-36322000D01*
X112901074Y-36322000D01*
X112775999Y-36297121D01*
X112650924Y-36322000D01*
X112650920Y-36322000D01*
X112280471Y-36395687D01*
X111860382Y-36676382D01*
X111789531Y-36782418D01*
X104394000Y-44177949D01*
X104394000Y-39008482D01*
X104481809Y-38949809D01*
X104622157Y-38739765D01*
X104625275Y-38724092D01*
X104794493Y-38893310D01*
X105358670Y-39127000D01*
X105969330Y-39127000D01*
X106533507Y-38893310D01*
X106965310Y-38461507D01*
X107199000Y-37897330D01*
X107199000Y-37286670D01*
X106965310Y-36722493D01*
X106533507Y-36290690D01*
X105969330Y-36057000D01*
X105358670Y-36057000D01*
X104794493Y-36290690D01*
X104625275Y-36459908D01*
X104622157Y-36444235D01*
X104481809Y-36234191D01*
X104271765Y-36093843D01*
X104024000Y-36044560D01*
X102224000Y-36044560D01*
X101976235Y-36093843D01*
X101766191Y-36234191D01*
X101625843Y-36444235D01*
X101576560Y-36692000D01*
X101576560Y-38492000D01*
X101625843Y-38739765D01*
X101766191Y-38949809D01*
X101854000Y-39008482D01*
X101854001Y-44177948D01*
X92161405Y-53870545D01*
X91948000Y-53828096D01*
X91551577Y-53906950D01*
X91215506Y-54131506D01*
X91014247Y-54432711D01*
X90950577Y-54337423D01*
X90475909Y-54020260D01*
X90331608Y-53991557D01*
X85870051Y-49530000D01*
X90585051Y-49530000D01*
X90727469Y-50245981D01*
X91133039Y-50852961D01*
X91740019Y-51258531D01*
X92275273Y-51365000D01*
X92636727Y-51365000D01*
X93171981Y-51258531D01*
X93778961Y-50852961D01*
X94184531Y-50245981D01*
X94326949Y-49530000D01*
X94184531Y-48814019D01*
X93778961Y-48207039D01*
X93171981Y-47801469D01*
X92636727Y-47695000D01*
X92275273Y-47695000D01*
X91740019Y-47801469D01*
X91133039Y-48207039D01*
X90727469Y-48814019D01*
X90585051Y-49530000D01*
X85870051Y-49530000D01*
X80264000Y-43923950D01*
X80264000Y-39008482D01*
X80351809Y-38949809D01*
X80492157Y-38739765D01*
X80495275Y-38724092D01*
X80664493Y-38893310D01*
X81228670Y-39127000D01*
X81839330Y-39127000D01*
X82403507Y-38893310D01*
X82835310Y-38461507D01*
X83069000Y-37897330D01*
X83069000Y-37286670D01*
X82835310Y-36722493D01*
X82403507Y-36290690D01*
X81839330Y-36057000D01*
X81228670Y-36057000D01*
X80664493Y-36290690D01*
X80495275Y-36459908D01*
X80492157Y-36444235D01*
X80351809Y-36234191D01*
X80141765Y-36093843D01*
X79894000Y-36044560D01*
X78094000Y-36044560D01*
X77846235Y-36093843D01*
X77636191Y-36234191D01*
X77495843Y-36444235D01*
X77446560Y-36692000D01*
X77446560Y-38492000D01*
X77495843Y-38739765D01*
X77636191Y-38949809D01*
X77724000Y-39008482D01*
X77724001Y-43923951D01*
X72393672Y-38593622D01*
X72322819Y-38487583D01*
X71902730Y-38206888D01*
X71532281Y-38133201D01*
X71532276Y-38133201D01*
X71407201Y-38108322D01*
X71282126Y-38133201D01*
X54777299Y-38133201D01*
X54875000Y-37897330D01*
X54875000Y-37286670D01*
X54641310Y-36722493D01*
X54209507Y-36290690D01*
X53645330Y-36057000D01*
X53034670Y-36057000D01*
X52470493Y-36290690D01*
X52301275Y-36459908D01*
X52298157Y-36444235D01*
X52157809Y-36234191D01*
X51947765Y-36093843D01*
X51700000Y-36044560D01*
X49900000Y-36044560D01*
X49652235Y-36093843D01*
X49442191Y-36234191D01*
X49301843Y-36444235D01*
X49252560Y-36692000D01*
X49252560Y-38492000D01*
X49301843Y-38739765D01*
X49442191Y-38949809D01*
X49652235Y-39090157D01*
X49900000Y-39139440D01*
X50410812Y-39139440D01*
X51484153Y-40212782D01*
X51555005Y-40318819D01*
X51975094Y-40599514D01*
X52345543Y-40673201D01*
X52345547Y-40673201D01*
X52470623Y-40698080D01*
X52595699Y-40673201D01*
X70881151Y-40673201D01*
X84247388Y-54039439D01*
X83801423Y-54337423D01*
X83789010Y-54356000D01*
X39398840Y-54356000D01*
X24082836Y-39039996D01*
X24217809Y-38949809D01*
X24358157Y-38739765D01*
X24361275Y-38724092D01*
X24530493Y-38893310D01*
X25094670Y-39127000D01*
X25498160Y-39127000D01*
X36564468Y-50193309D01*
X36625469Y-50499981D01*
X37031039Y-51106961D01*
X37638019Y-51512531D01*
X38173273Y-51619000D01*
X38534727Y-51619000D01*
X39069981Y-51512531D01*
X39676961Y-51106961D01*
X40082531Y-50499981D01*
X40224949Y-49784000D01*
X64169051Y-49784000D01*
X64311469Y-50499981D01*
X64717039Y-51106961D01*
X65324019Y-51512531D01*
X65859273Y-51619000D01*
X66220727Y-51619000D01*
X66755981Y-51512531D01*
X67362961Y-51106961D01*
X67768531Y-50499981D01*
X67910949Y-49784000D01*
X67768531Y-49068019D01*
X67362961Y-48461039D01*
X66755981Y-48055469D01*
X66220727Y-47949000D01*
X65859273Y-47949000D01*
X65324019Y-48055469D01*
X64717039Y-48461039D01*
X64311469Y-49068019D01*
X64169051Y-49784000D01*
X40224949Y-49784000D01*
X40082531Y-49068019D01*
X39676961Y-48461039D01*
X39069981Y-48055469D01*
X38534727Y-47949000D01*
X38173273Y-47949000D01*
X37638019Y-48055469D01*
X37435577Y-48190736D01*
X26935000Y-37690160D01*
X26935000Y-37286670D01*
X26701310Y-36722493D01*
X26269507Y-36290690D01*
X25705330Y-36057000D01*
X25094670Y-36057000D01*
X24530493Y-36290690D01*
X24361275Y-36459908D01*
X24358157Y-36444235D01*
X24217809Y-36234191D01*
X24007765Y-36093843D01*
X23760000Y-36044560D01*
X21960000Y-36044560D01*
X21712235Y-36093843D01*
X21502191Y-36234191D01*
X21361843Y-36444235D01*
X21312560Y-36692000D01*
X18515000Y-36692000D01*
X18515000Y-26558996D01*
X36519000Y-26558996D01*
X36519000Y-27289004D01*
X36798362Y-27963444D01*
X37314556Y-28479638D01*
X37988996Y-28759000D01*
X38719004Y-28759000D01*
X39393444Y-28479638D01*
X39909638Y-27963444D01*
X40189000Y-27289004D01*
X40189000Y-26558996D01*
X64205000Y-26558996D01*
X64205000Y-27289004D01*
X64484362Y-27963444D01*
X65000556Y-28479638D01*
X65674996Y-28759000D01*
X66405004Y-28759000D01*
X67079444Y-28479638D01*
X67595638Y-27963444D01*
X67875000Y-27289004D01*
X67875000Y-26558996D01*
X67769790Y-26304996D01*
X90621000Y-26304996D01*
X90621000Y-27035004D01*
X90900362Y-27709444D01*
X91416556Y-28225638D01*
X92090996Y-28505000D01*
X92821004Y-28505000D01*
X93495444Y-28225638D01*
X94011638Y-27709444D01*
X94291000Y-27035004D01*
X94291000Y-26304996D01*
X94185790Y-26050996D01*
X114751000Y-26050996D01*
X114751000Y-26781004D01*
X115030362Y-27455444D01*
X115546556Y-27971638D01*
X116220996Y-28251000D01*
X116951004Y-28251000D01*
X117625444Y-27971638D01*
X118141638Y-27455444D01*
X118421000Y-26781004D01*
X118421000Y-26050996D01*
X138373000Y-26050996D01*
X138373000Y-26781004D01*
X138652362Y-27455444D01*
X139168556Y-27971638D01*
X139842996Y-28251000D01*
X140573004Y-28251000D01*
X141247444Y-27971638D01*
X141763638Y-27455444D01*
X142043000Y-26781004D01*
X142043000Y-26050996D01*
X141763638Y-25376556D01*
X141247444Y-24860362D01*
X140573004Y-24581000D01*
X139842996Y-24581000D01*
X139168556Y-24860362D01*
X138652362Y-25376556D01*
X138373000Y-26050996D01*
X118421000Y-26050996D01*
X118141638Y-25376556D01*
X117625444Y-24860362D01*
X116951004Y-24581000D01*
X116220996Y-24581000D01*
X115546556Y-24860362D01*
X115030362Y-25376556D01*
X114751000Y-26050996D01*
X94185790Y-26050996D01*
X94011638Y-25630556D01*
X93495444Y-25114362D01*
X92821004Y-24835000D01*
X92090996Y-24835000D01*
X91416556Y-25114362D01*
X90900362Y-25630556D01*
X90621000Y-26304996D01*
X67769790Y-26304996D01*
X67595638Y-25884556D01*
X67079444Y-25368362D01*
X66405004Y-25089000D01*
X65674996Y-25089000D01*
X65000556Y-25368362D01*
X64484362Y-25884556D01*
X64205000Y-26558996D01*
X40189000Y-26558996D01*
X39909638Y-25884556D01*
X39393444Y-25368362D01*
X38719004Y-25089000D01*
X37988996Y-25089000D01*
X37314556Y-25368362D01*
X36798362Y-25884556D01*
X36519000Y-26558996D01*
X18515000Y-26558996D01*
X18515000Y-18515000D01*
X220245001Y-18515000D01*
X220245000Y-118645000D01*
X220245000Y-118645000D01*
G37*
X220245000Y-118645000D02*
X18515000Y-118645000D01*
X18515000Y-108458000D01*
X122326051Y-108458000D01*
X122468469Y-109173981D01*
X122874039Y-109780961D01*
X123481019Y-110186531D01*
X124016273Y-110293000D01*
X124377727Y-110293000D01*
X124912981Y-110186531D01*
X125519961Y-109780961D01*
X125925531Y-109173981D01*
X126067949Y-108458000D01*
X125995345Y-108092996D01*
X145222000Y-108092996D01*
X145222000Y-108823004D01*
X145501362Y-109497444D01*
X146017556Y-110013638D01*
X146691996Y-110293000D01*
X147422004Y-110293000D01*
X148096444Y-110013638D01*
X148612638Y-109497444D01*
X148892000Y-108823004D01*
X148892000Y-108092996D01*
X148612638Y-107418556D01*
X148096444Y-106902362D01*
X147422004Y-106623000D01*
X146691996Y-106623000D01*
X146017556Y-106902362D01*
X145501362Y-107418556D01*
X145222000Y-108092996D01*
X125995345Y-108092996D01*
X125925531Y-107742019D01*
X125519961Y-107135039D01*
X124912981Y-106729469D01*
X124377727Y-106623000D01*
X124016273Y-106623000D01*
X123481019Y-106729469D01*
X122874039Y-107135039D01*
X122468469Y-107742019D01*
X122326051Y-108458000D01*
X18515000Y-108458000D01*
X18515000Y-106066963D01*
X70585000Y-106066963D01*
X70585000Y-106785037D01*
X70859795Y-107448450D01*
X71367550Y-107956205D01*
X72030963Y-108231000D01*
X72749037Y-108231000D01*
X73412450Y-107956205D01*
X73920205Y-107448450D01*
X74195000Y-106785037D01*
X74195000Y-106066963D01*
X73920205Y-105403550D01*
X73412450Y-104895795D01*
X72749037Y-104621000D01*
X72030963Y-104621000D01*
X71367550Y-104895795D01*
X70859795Y-105403550D01*
X70585000Y-106066963D01*
X18515000Y-106066963D01*
X18515000Y-101066963D01*
X70585000Y-101066963D01*
X70585000Y-101785037D01*
X70859795Y-102448450D01*
X71367550Y-102956205D01*
X72030963Y-103231000D01*
X72749037Y-103231000D01*
X73007357Y-103124000D01*
X165261051Y-103124000D01*
X165403469Y-103839981D01*
X165809039Y-104446961D01*
X166416019Y-104852531D01*
X166951273Y-104959000D01*
X167312727Y-104959000D01*
X167847981Y-104852531D01*
X168454961Y-104446961D01*
X168860531Y-103839981D01*
X169002949Y-103124000D01*
X168860531Y-102408019D01*
X168454961Y-101801039D01*
X167847981Y-101395469D01*
X167312727Y-101289000D01*
X166951273Y-101289000D01*
X166416019Y-101395469D01*
X165809039Y-101801039D01*
X165403469Y-102408019D01*
X165261051Y-103124000D01*
X73007357Y-103124000D01*
X73412450Y-102956205D01*
X73920205Y-102448450D01*
X74195000Y-101785037D01*
X74195000Y-101066963D01*
X73920205Y-100403550D01*
X73412450Y-99895795D01*
X72749037Y-99621000D01*
X72030963Y-99621000D01*
X71367550Y-99895795D01*
X70859795Y-100403550D01*
X70585000Y-101066963D01*
X18515000Y-101066963D01*
X18515000Y-97701486D01*
X71294120Y-97701486D01*
X71413586Y-97985984D01*
X72084890Y-98240894D01*
X72802646Y-98219504D01*
X73366414Y-97985984D01*
X73485880Y-97701486D01*
X72390000Y-96605605D01*
X71294120Y-97701486D01*
X18515000Y-97701486D01*
X18515000Y-96120890D01*
X70575106Y-96120890D01*
X70596496Y-96838646D01*
X70830016Y-97402414D01*
X71114514Y-97521880D01*
X72210395Y-96426000D01*
X72569605Y-96426000D01*
X73665486Y-97521880D01*
X73949984Y-97402414D01*
X74204894Y-96731110D01*
X74183504Y-96013354D01*
X73949984Y-95449586D01*
X73665486Y-95330120D01*
X72569605Y-96426000D01*
X72210395Y-96426000D01*
X71114514Y-95330120D01*
X70830016Y-95449586D01*
X70575106Y-96120890D01*
X18515000Y-96120890D01*
X18515000Y-95150514D01*
X71294120Y-95150514D01*
X72390000Y-96246395D01*
X73485880Y-95150514D01*
X73366414Y-94866016D01*
X72695110Y-94611106D01*
X71977354Y-94632496D01*
X71413586Y-94866016D01*
X71294120Y-95150514D01*
X18515000Y-95150514D01*
X18515000Y-75416506D01*
X55511000Y-75416506D01*
X55511000Y-75967494D01*
X55721853Y-76476540D01*
X56111460Y-76866147D01*
X56620506Y-77077000D01*
X57171494Y-77077000D01*
X57449130Y-76962000D01*
X88854870Y-76962000D01*
X89132506Y-77077000D01*
X89683494Y-77077000D01*
X90192540Y-76866147D01*
X90582147Y-76476540D01*
X90793000Y-75967494D01*
X90793000Y-75416506D01*
X90582147Y-74907460D01*
X90192540Y-74517853D01*
X89683494Y-74307000D01*
X89132506Y-74307000D01*
X88854870Y-74422000D01*
X57449130Y-74422000D01*
X57171494Y-74307000D01*
X56620506Y-74307000D01*
X56111460Y-74517853D01*
X55721853Y-74907460D01*
X55511000Y-75416506D01*
X18515000Y-75416506D01*
X18515000Y-59944000D01*
X42173908Y-59944000D01*
X42289161Y-60523418D01*
X42617375Y-61014625D01*
X43108582Y-61342839D01*
X43541744Y-61429000D01*
X43834256Y-61429000D01*
X44267418Y-61342839D01*
X44758625Y-61014625D01*
X44958000Y-60716239D01*
X45157375Y-61014625D01*
X45648582Y-61342839D01*
X45876031Y-61388081D01*
X55147531Y-70659582D01*
X55218382Y-70765618D01*
X55638471Y-71046313D01*
X56008920Y-71120000D01*
X56008924Y-71120000D01*
X56134000Y-71144879D01*
X56259076Y-71120000D01*
X70820870Y-71120000D01*
X71098506Y-71235000D01*
X71649494Y-71235000D01*
X72158540Y-71024147D01*
X72548147Y-70634540D01*
X72759000Y-70125494D01*
X72759000Y-69574506D01*
X72548147Y-69065460D01*
X72158540Y-68675853D01*
X71649494Y-68465000D01*
X71098506Y-68465000D01*
X70820870Y-68580000D01*
X56660051Y-68580000D01*
X50272051Y-62192000D01*
X83388560Y-62192000D01*
X83388560Y-63792000D01*
X83437843Y-64039765D01*
X83578191Y-64249809D01*
X83788235Y-64390157D01*
X83820001Y-64396476D01*
X83820001Y-65274386D01*
X83800096Y-65374454D01*
X83878950Y-65770877D01*
X84026980Y-65992419D01*
X84103506Y-66106949D01*
X84188338Y-66163632D01*
X103508368Y-85483663D01*
X103565051Y-85568495D01*
X103695440Y-85655618D01*
X103901121Y-85793050D01*
X103901122Y-85793050D01*
X103901123Y-85793051D01*
X104197481Y-85852000D01*
X104297545Y-85871904D01*
X104397609Y-85852000D01*
X112065160Y-85852000D01*
X113492440Y-87279280D01*
X113453110Y-87258524D01*
X113043076Y-87428355D01*
X112614817Y-87818642D01*
X112553843Y-87948478D01*
X112340625Y-87629375D01*
X111849418Y-87301161D01*
X111416256Y-87215000D01*
X111123744Y-87215000D01*
X110690582Y-87301161D01*
X110199375Y-87629375D01*
X110000000Y-87927761D01*
X109800625Y-87629375D01*
X109309418Y-87301161D01*
X108876256Y-87215000D01*
X108583744Y-87215000D01*
X108150582Y-87301161D01*
X107659375Y-87629375D01*
X107460000Y-87927761D01*
X107260625Y-87629375D01*
X106769418Y-87301161D01*
X106336256Y-87215000D01*
X106043744Y-87215000D01*
X105610582Y-87301161D01*
X105119375Y-87629375D01*
X104791161Y-88120582D01*
X104675908Y-88700000D01*
X104791161Y-89279418D01*
X105119375Y-89770625D01*
X105610582Y-90098839D01*
X106043744Y-90185000D01*
X106336256Y-90185000D01*
X106769418Y-90098839D01*
X107260625Y-89770625D01*
X107460000Y-89472239D01*
X107659375Y-89770625D01*
X108150582Y-90098839D01*
X108583744Y-90185000D01*
X108876256Y-90185000D01*
X109309418Y-90098839D01*
X109800625Y-89770625D01*
X110000000Y-89472239D01*
X110199375Y-89770625D01*
X110690582Y-90098839D01*
X111123744Y-90185000D01*
X111416256Y-90185000D01*
X111849418Y-90098839D01*
X112340625Y-89770625D01*
X112553843Y-89451522D01*
X112614817Y-89581358D01*
X113043076Y-89971645D01*
X113453110Y-90141476D01*
X113683000Y-90020155D01*
X113683000Y-88827000D01*
X113663000Y-88827000D01*
X113663000Y-88573000D01*
X113683000Y-88573000D01*
X113683000Y-88553000D01*
X113937000Y-88553000D01*
X113937000Y-88573000D01*
X113957000Y-88573000D01*
X113957000Y-88827000D01*
X113937000Y-88827000D01*
X113937000Y-90020155D01*
X114166890Y-90141476D01*
X114576924Y-89971645D01*
X115005183Y-89581358D01*
X115066157Y-89451522D01*
X115279375Y-89770625D01*
X115770582Y-90098839D01*
X116203744Y-90185000D01*
X116496256Y-90185000D01*
X116929418Y-90098839D01*
X117420625Y-89770625D01*
X117620000Y-89472239D01*
X117819375Y-89770625D01*
X118310582Y-90098839D01*
X118743744Y-90185000D01*
X119036256Y-90185000D01*
X119469418Y-90098839D01*
X119960625Y-89770625D01*
X120160000Y-89472239D01*
X120359375Y-89770625D01*
X120850582Y-90098839D01*
X121283744Y-90185000D01*
X121576256Y-90185000D01*
X122009418Y-90098839D01*
X122500625Y-89770625D01*
X122700000Y-89472239D01*
X122899375Y-89770625D01*
X123390582Y-90098839D01*
X123823744Y-90185000D01*
X124116256Y-90185000D01*
X124549418Y-90098839D01*
X125040625Y-89770625D01*
X125240000Y-89472239D01*
X125439375Y-89770625D01*
X125930582Y-90098839D01*
X126363744Y-90185000D01*
X126656256Y-90185000D01*
X127089418Y-90098839D01*
X127580625Y-89770625D01*
X127780000Y-89472239D01*
X127979375Y-89770625D01*
X128470582Y-90098839D01*
X128903744Y-90185000D01*
X129196256Y-90185000D01*
X129629418Y-90098839D01*
X130120625Y-89770625D01*
X130320000Y-89472239D01*
X130519375Y-89770625D01*
X131010582Y-90098839D01*
X131443744Y-90185000D01*
X131736256Y-90185000D01*
X132169418Y-90098839D01*
X132660625Y-89770625D01*
X132860000Y-89472239D01*
X133059375Y-89770625D01*
X133550582Y-90098839D01*
X133983744Y-90185000D01*
X134276256Y-90185000D01*
X134709418Y-90098839D01*
X135200625Y-89770625D01*
X135400000Y-89472239D01*
X135599375Y-89770625D01*
X136090582Y-90098839D01*
X136523744Y-90185000D01*
X136816256Y-90185000D01*
X137249418Y-90098839D01*
X137740625Y-89770625D01*
X137940000Y-89472239D01*
X138139375Y-89770625D01*
X138630582Y-90098839D01*
X139063744Y-90185000D01*
X139356256Y-90185000D01*
X139789418Y-90098839D01*
X140280625Y-89770625D01*
X140480000Y-89472239D01*
X140679375Y-89770625D01*
X141170582Y-90098839D01*
X141603744Y-90185000D01*
X141896256Y-90185000D01*
X142329418Y-90098839D01*
X142820625Y-89770625D01*
X142832816Y-89752381D01*
X142841843Y-89797765D01*
X142982191Y-90007809D01*
X143192235Y-90148157D01*
X143440000Y-90197440D01*
X145140000Y-90197440D01*
X145387765Y-90148157D01*
X145597809Y-90007809D01*
X145738157Y-89797765D01*
X145787440Y-89550000D01*
X145787440Y-87850000D01*
X145738157Y-87602235D01*
X145597809Y-87392191D01*
X145387765Y-87251843D01*
X145306000Y-87235579D01*
X145306000Y-86224064D01*
X145325904Y-86124000D01*
X145306000Y-86023935D01*
X145247051Y-85727577D01*
X145022495Y-85391505D01*
X144937664Y-85334823D01*
X137506401Y-77903561D01*
X137449716Y-77818726D01*
X137113644Y-77594170D01*
X136817286Y-77535221D01*
X136817284Y-77535221D01*
X136717221Y-77515317D01*
X136617158Y-77535221D01*
X110976062Y-77535221D01*
X101960841Y-68520000D01*
X119685908Y-68520000D01*
X119801161Y-69099418D01*
X120129375Y-69590625D01*
X120620582Y-69918839D01*
X121053744Y-70005000D01*
X121346256Y-70005000D01*
X121779418Y-69918839D01*
X122270625Y-69590625D01*
X122470000Y-69292239D01*
X122669375Y-69590625D01*
X122723103Y-69626525D01*
X122704096Y-69722081D01*
X122762847Y-70017440D01*
X122782950Y-70118504D01*
X123007506Y-70454576D01*
X123092338Y-70511259D01*
X129682741Y-77101663D01*
X129739424Y-77186495D01*
X130075496Y-77411051D01*
X130371854Y-77470000D01*
X130371855Y-77470000D01*
X130471918Y-77489904D01*
X130571982Y-77470000D01*
X141311160Y-77470000D01*
X147066000Y-83224841D01*
X147066001Y-87753867D01*
X147124950Y-88050225D01*
X147256501Y-88247105D01*
X147256500Y-89574067D01*
X145454068Y-91376500D01*
X140174297Y-91376500D01*
X140092999Y-91360329D01*
X140011701Y-91376500D01*
X140011697Y-91376500D01*
X139770906Y-91424396D01*
X139497848Y-91606848D01*
X139451793Y-91675774D01*
X136887775Y-94239793D01*
X136818849Y-94285848D01*
X136772794Y-94354774D01*
X136636397Y-94558906D01*
X136607956Y-94701887D01*
X136596609Y-94694305D01*
X136144000Y-94604275D01*
X135691392Y-94694305D01*
X135307688Y-94950687D01*
X135051305Y-95334391D01*
X134984000Y-95672754D01*
X134984000Y-96351245D01*
X135051305Y-96689608D01*
X135307687Y-97073313D01*
X135691391Y-97329695D01*
X136144000Y-97419725D01*
X136596608Y-97329695D01*
X136779000Y-97207825D01*
X136961391Y-97329695D01*
X137414000Y-97419725D01*
X137865866Y-97329842D01*
X137911235Y-97360157D01*
X138159000Y-97409440D01*
X139209000Y-97409440D01*
X139456765Y-97360157D01*
X139574006Y-97281818D01*
X139574920Y-97282000D01*
X165736925Y-97282000D01*
X165862000Y-97306879D01*
X165987075Y-97282000D01*
X165987080Y-97282000D01*
X166357529Y-97208313D01*
X166777618Y-96927618D01*
X166848471Y-96821579D01*
X167384903Y-96285148D01*
X167662540Y-96170147D01*
X168052147Y-95780540D01*
X168263000Y-95271494D01*
X168263000Y-94720506D01*
X168052147Y-94211460D01*
X167662540Y-93821853D01*
X167153494Y-93611000D01*
X166602506Y-93611000D01*
X166093460Y-93821853D01*
X165703853Y-94211460D01*
X165588852Y-94489097D01*
X165335950Y-94742000D01*
X139574920Y-94742000D01*
X139574006Y-94742182D01*
X139456765Y-94663843D01*
X139209000Y-94614560D01*
X138847872Y-94614560D01*
X140434933Y-93027500D01*
X145714699Y-93027500D01*
X145796000Y-93043672D01*
X145877301Y-93027500D01*
X145877303Y-93027500D01*
X146118094Y-92979604D01*
X146391152Y-92797152D01*
X146437209Y-92728223D01*
X148608226Y-90557207D01*
X148677152Y-90511152D01*
X148859604Y-90238094D01*
X148907500Y-89997303D01*
X148907500Y-89997299D01*
X148923671Y-89916001D01*
X148907500Y-89834703D01*
X148907500Y-88247105D01*
X149039051Y-88050225D01*
X149098000Y-87753867D01*
X149098000Y-82904063D01*
X149117904Y-82803999D01*
X149082038Y-82623688D01*
X149039051Y-82407577D01*
X148814495Y-82071505D01*
X148729664Y-82014823D01*
X147211347Y-80496506D01*
X160159000Y-80496506D01*
X160159000Y-81047494D01*
X160274000Y-81325130D01*
X160274001Y-89282920D01*
X160249121Y-89408000D01*
X160347688Y-89903529D01*
X160557530Y-90217580D01*
X160557532Y-90217582D01*
X160628383Y-90323618D01*
X160734419Y-90394469D01*
X161827530Y-91487581D01*
X161898382Y-91593618D01*
X162318471Y-91874313D01*
X162688920Y-91948000D01*
X162688924Y-91948000D01*
X162813999Y-91972879D01*
X162939074Y-91948000D01*
X165843950Y-91948000D01*
X178288853Y-104392904D01*
X178403853Y-104670540D01*
X178793460Y-105060147D01*
X179302506Y-105271000D01*
X179853494Y-105271000D01*
X180362540Y-105060147D01*
X180752147Y-104670540D01*
X180963000Y-104161494D01*
X180963000Y-103610506D01*
X180752147Y-103101460D01*
X180409683Y-102758996D01*
X188157000Y-102758996D01*
X188157000Y-103489004D01*
X188436362Y-104163444D01*
X188952556Y-104679638D01*
X189626996Y-104959000D01*
X190357004Y-104959000D01*
X191031444Y-104679638D01*
X191547638Y-104163444D01*
X191827000Y-103489004D01*
X191827000Y-102758996D01*
X191547638Y-102084556D01*
X191031444Y-101568362D01*
X190357004Y-101289000D01*
X189626996Y-101289000D01*
X188952556Y-101568362D01*
X188436362Y-102084556D01*
X188157000Y-102758996D01*
X180409683Y-102758996D01*
X180362540Y-102711853D01*
X180084904Y-102596853D01*
X177818051Y-100330000D01*
X203717908Y-100330000D01*
X203833161Y-100909418D01*
X204161375Y-101400625D01*
X204179619Y-101412816D01*
X204134235Y-101421843D01*
X203924191Y-101562191D01*
X203783843Y-101772235D01*
X203734560Y-102020000D01*
X203734560Y-103720000D01*
X203783843Y-103967765D01*
X203924191Y-104177809D01*
X204134235Y-104318157D01*
X204382000Y-104367440D01*
X206082000Y-104367440D01*
X206329765Y-104318157D01*
X206539809Y-104177809D01*
X206680157Y-103967765D01*
X206729440Y-103720000D01*
X206729440Y-102020000D01*
X206680157Y-101772235D01*
X206539809Y-101562191D01*
X206329765Y-101421843D01*
X206284381Y-101412816D01*
X206302625Y-101400625D01*
X206630839Y-100909418D01*
X206746092Y-100330000D01*
X206630839Y-99750582D01*
X206302625Y-99259375D01*
X205811418Y-98931161D01*
X205378256Y-98845000D01*
X205085744Y-98845000D01*
X204652582Y-98931161D01*
X204161375Y-99259375D01*
X203833161Y-99750582D01*
X203717908Y-100330000D01*
X177818051Y-100330000D01*
X172769801Y-95281750D01*
X186118500Y-95281750D01*
X186118500Y-96122310D01*
X186215173Y-96355699D01*
X186393802Y-96534327D01*
X186627191Y-96631000D01*
X187420250Y-96631000D01*
X187579000Y-96472250D01*
X187579000Y-95123000D01*
X186277250Y-95123000D01*
X186118500Y-95281750D01*
X172769801Y-95281750D01*
X171357741Y-93869690D01*
X186118500Y-93869690D01*
X186118500Y-94710250D01*
X186277250Y-94869000D01*
X187579000Y-94869000D01*
X187579000Y-93519750D01*
X187833000Y-93519750D01*
X187833000Y-94869000D01*
X187853000Y-94869000D01*
X187853000Y-95123000D01*
X187833000Y-95123000D01*
X187833000Y-96472250D01*
X187991750Y-96631000D01*
X188784809Y-96631000D01*
X189018198Y-96534327D01*
X189196827Y-96355699D01*
X189230556Y-96274270D01*
X189626590Y-96538891D01*
X190246000Y-96662100D01*
X190865411Y-96538891D01*
X191390523Y-96188023D01*
X191516000Y-96000233D01*
X191641477Y-96188023D01*
X192166590Y-96538891D01*
X192786000Y-96662100D01*
X193405411Y-96538891D01*
X193930523Y-96188023D01*
X194281391Y-95662910D01*
X194373500Y-95199849D01*
X194373500Y-94792150D01*
X194281391Y-94329089D01*
X193930523Y-93803977D01*
X193405410Y-93453109D01*
X192786000Y-93329900D01*
X192166589Y-93453109D01*
X191641477Y-93803977D01*
X191516000Y-93991767D01*
X191390523Y-93803977D01*
X190865410Y-93453109D01*
X190246000Y-93329900D01*
X189626589Y-93453109D01*
X189230556Y-93717729D01*
X189196827Y-93636301D01*
X189018198Y-93457673D01*
X188784809Y-93361000D01*
X187991750Y-93361000D01*
X187833000Y-93519750D01*
X187579000Y-93519750D01*
X187420250Y-93361000D01*
X186627191Y-93361000D01*
X186393802Y-93457673D01*
X186215173Y-93636301D01*
X186118500Y-93869690D01*
X171357741Y-93869690D01*
X167356471Y-89868421D01*
X167285618Y-89762382D01*
X166865529Y-89481687D01*
X166654698Y-89439750D01*
X209451000Y-89439750D01*
X209451000Y-91030310D01*
X209547673Y-91263699D01*
X209726302Y-91442327D01*
X209959691Y-91539000D01*
X211550250Y-91539000D01*
X211709000Y-91380250D01*
X211709000Y-89281000D01*
X211963000Y-89281000D01*
X211963000Y-91380250D01*
X212121750Y-91539000D01*
X213712309Y-91539000D01*
X213945698Y-91442327D01*
X214124327Y-91263699D01*
X214221000Y-91030310D01*
X214221000Y-89439750D01*
X214062250Y-89281000D01*
X211963000Y-89281000D01*
X211709000Y-89281000D01*
X209609750Y-89281000D01*
X209451000Y-89439750D01*
X166654698Y-89439750D01*
X166495080Y-89408000D01*
X166495075Y-89408000D01*
X166370000Y-89383121D01*
X166244925Y-89408000D01*
X163340051Y-89408000D01*
X162814000Y-88881950D01*
X162814000Y-87277690D01*
X209451000Y-87277690D01*
X209451000Y-88868250D01*
X209609750Y-89027000D01*
X211709000Y-89027000D01*
X211709000Y-86927750D01*
X211550250Y-86769000D01*
X209959691Y-86769000D01*
X209726302Y-86865673D01*
X209547673Y-87044301D01*
X209451000Y-87277690D01*
X162814000Y-87277690D01*
X162814000Y-83544506D01*
X183781000Y-83544506D01*
X183781000Y-84095494D01*
X183991853Y-84604540D01*
X184381460Y-84994147D01*
X184890506Y-85205000D01*
X185441494Y-85205000D01*
X185719130Y-85090000D01*
X212438560Y-85090000D01*
X212438560Y-85329000D01*
X212554449Y-85911613D01*
X212884472Y-86405528D01*
X213378387Y-86735551D01*
X213546546Y-86769000D01*
X212121750Y-86769000D01*
X211963000Y-86927750D01*
X211963000Y-89027000D01*
X214062250Y-89027000D01*
X214221000Y-88868250D01*
X214221000Y-87277690D01*
X214124327Y-87044301D01*
X213945698Y-86865673D01*
X213865454Y-86832435D01*
X213961000Y-86851440D01*
X215711000Y-86851440D01*
X216293613Y-86735551D01*
X216566000Y-86553548D01*
X216566000Y-86859995D01*
X216551223Y-86862934D01*
X216097861Y-87165861D01*
X215794934Y-87619223D01*
X215688560Y-88154000D01*
X215688560Y-90154000D01*
X215794934Y-90688777D01*
X216097861Y-91142139D01*
X216551223Y-91445066D01*
X217086000Y-91551440D01*
X218586000Y-91551440D01*
X219120777Y-91445066D01*
X219574139Y-91142139D01*
X219877066Y-90688777D01*
X219983440Y-90154000D01*
X219983440Y-88154000D01*
X219877066Y-87619223D01*
X219574139Y-87165861D01*
X219120777Y-86862934D01*
X219106000Y-86859995D01*
X219106000Y-84865074D01*
X219130879Y-84739999D01*
X219106000Y-84614924D01*
X219106000Y-84614920D01*
X219032313Y-84244471D01*
X218751618Y-83824382D01*
X218645579Y-83753529D01*
X218536470Y-83644420D01*
X218465618Y-83538382D01*
X218045529Y-83257687D01*
X217675080Y-83184000D01*
X217675075Y-83184000D01*
X217550000Y-83159121D01*
X217424925Y-83184000D01*
X217154870Y-83184000D01*
X217117551Y-82996387D01*
X216787528Y-82502472D01*
X216293613Y-82172449D01*
X215711000Y-82056560D01*
X213961000Y-82056560D01*
X213378387Y-82172449D01*
X212884472Y-82502472D01*
X212852715Y-82550000D01*
X185719130Y-82550000D01*
X185441494Y-82435000D01*
X184890506Y-82435000D01*
X184381460Y-82645853D01*
X183991853Y-83035460D01*
X183781000Y-83544506D01*
X162814000Y-83544506D01*
X162814000Y-81325130D01*
X162929000Y-81047494D01*
X162929000Y-80496506D01*
X162718147Y-79987460D01*
X162328540Y-79597853D01*
X161819494Y-79387000D01*
X161268506Y-79387000D01*
X160759460Y-79597853D01*
X160369853Y-79987460D01*
X160159000Y-80496506D01*
X147211347Y-80496506D01*
X143708591Y-76993750D01*
X193791000Y-76993750D01*
X193791000Y-77734310D01*
X193887673Y-77967699D01*
X194066302Y-78146327D01*
X194299691Y-78243000D01*
X195040250Y-78243000D01*
X195199000Y-78084250D01*
X195199000Y-76835000D01*
X193949750Y-76835000D01*
X193791000Y-76993750D01*
X143708591Y-76993750D01*
X142521180Y-75806340D01*
X142464495Y-75721505D01*
X142404908Y-75681690D01*
X193791000Y-75681690D01*
X193791000Y-76422250D01*
X193949750Y-76581000D01*
X195199000Y-76581000D01*
X195199000Y-75331750D01*
X195453000Y-75331750D01*
X195453000Y-76581000D01*
X195473000Y-76581000D01*
X195473000Y-76835000D01*
X195453000Y-76835000D01*
X195453000Y-78084250D01*
X195611750Y-78243000D01*
X196352309Y-78243000D01*
X196585698Y-78146327D01*
X196764327Y-77967699D01*
X196820139Y-77832956D01*
X196996493Y-78009310D01*
X197560670Y-78243000D01*
X198171330Y-78243000D01*
X198735507Y-78009310D01*
X199167310Y-77577507D01*
X199401000Y-77013330D01*
X199401000Y-76402670D01*
X199167310Y-75838493D01*
X198735507Y-75406690D01*
X198171330Y-75173000D01*
X197560670Y-75173000D01*
X196996493Y-75406690D01*
X196820139Y-75583044D01*
X196764327Y-75448301D01*
X196585698Y-75269673D01*
X196352309Y-75173000D01*
X195611750Y-75173000D01*
X195453000Y-75331750D01*
X195199000Y-75331750D01*
X195040250Y-75173000D01*
X194299691Y-75173000D01*
X194066302Y-75269673D01*
X193887673Y-75448301D01*
X193791000Y-75681690D01*
X142404908Y-75681690D01*
X142128423Y-75496949D01*
X141832065Y-75438000D01*
X141832063Y-75438000D01*
X141732000Y-75418096D01*
X141631937Y-75438000D01*
X130892760Y-75438000D01*
X124904656Y-69449897D01*
X125010000Y-69292239D01*
X125209375Y-69590625D01*
X125700582Y-69918839D01*
X126133744Y-70005000D01*
X126328159Y-70005000D01*
X126482335Y-70159176D01*
X126482338Y-70159178D01*
X130581050Y-74257890D01*
X130637735Y-74342725D01*
X130973807Y-74567281D01*
X131270165Y-74626230D01*
X131270166Y-74626230D01*
X131370229Y-74646134D01*
X131470293Y-74626230D01*
X142981964Y-74626230D01*
X143082027Y-74646134D01*
X143182090Y-74626230D01*
X143182092Y-74626230D01*
X143478450Y-74567281D01*
X143814522Y-74342725D01*
X143871207Y-74257890D01*
X145297323Y-72831774D01*
X172457831Y-72831774D01*
X172522131Y-73069611D01*
X173030342Y-73249333D01*
X173568644Y-73220892D01*
X173933869Y-73069611D01*
X173998169Y-72831774D01*
X173228000Y-72061605D01*
X172457831Y-72831774D01*
X145297323Y-72831774D01*
X152872591Y-65256506D01*
X158381000Y-65256506D01*
X158381000Y-65807494D01*
X158496001Y-66085132D01*
X158496000Y-70188260D01*
X158496000Y-70820870D01*
X158381000Y-71098506D01*
X158381000Y-71649494D01*
X158591853Y-72158540D01*
X158981460Y-72548147D01*
X159490506Y-72759000D01*
X160041494Y-72759000D01*
X160550540Y-72548147D01*
X160940147Y-72158540D01*
X161136565Y-71684342D01*
X171860667Y-71684342D01*
X171889108Y-72222644D01*
X172040389Y-72587869D01*
X172278226Y-72652169D01*
X173048395Y-71882000D01*
X173407605Y-71882000D01*
X174177774Y-72652169D01*
X174415611Y-72587869D01*
X174595333Y-72079658D01*
X174566892Y-71541356D01*
X174415611Y-71176131D01*
X174177774Y-71111831D01*
X173407605Y-71882000D01*
X173048395Y-71882000D01*
X172278226Y-71111831D01*
X172040389Y-71176131D01*
X171860667Y-71684342D01*
X161136565Y-71684342D01*
X161151000Y-71649494D01*
X161151000Y-71098506D01*
X161082125Y-70932226D01*
X172457831Y-70932226D01*
X173228000Y-71702395D01*
X173998169Y-70932226D01*
X173933869Y-70694389D01*
X173425658Y-70514667D01*
X172887356Y-70543108D01*
X172522131Y-70694389D01*
X172457831Y-70932226D01*
X161082125Y-70932226D01*
X161036000Y-70820870D01*
X161036000Y-66085130D01*
X161151000Y-65807494D01*
X161151000Y-65256506D01*
X160940147Y-64747460D01*
X160550540Y-64357853D01*
X160041494Y-64147000D01*
X159490506Y-64147000D01*
X158981460Y-64357853D01*
X158591853Y-64747460D01*
X158381000Y-65256506D01*
X152872591Y-65256506D01*
X158586823Y-59542274D01*
X158671655Y-59485591D01*
X158896211Y-59149519D01*
X158955160Y-58853161D01*
X158955160Y-58853160D01*
X158975064Y-58753096D01*
X158955160Y-58653032D01*
X158955160Y-57172506D01*
X159209160Y-56792369D01*
X159463160Y-57172507D01*
X159463161Y-61573092D01*
X159443256Y-61673160D01*
X159497177Y-61944235D01*
X159522110Y-62069583D01*
X159746666Y-62405655D01*
X159831498Y-62462338D01*
X166793000Y-69423841D01*
X166793000Y-69611526D01*
X166999286Y-70109546D01*
X167380454Y-70490714D01*
X167878474Y-70697000D01*
X168417526Y-70697000D01*
X168915546Y-70490714D01*
X169296714Y-70109546D01*
X169503000Y-69611526D01*
X169503000Y-69072474D01*
X169296714Y-68574454D01*
X168915546Y-68193286D01*
X168417526Y-67987000D01*
X168229841Y-67987000D01*
X161495160Y-61252320D01*
X161495160Y-57172506D01*
X161749160Y-56792369D01*
X161749161Y-59770080D01*
X161724281Y-59895160D01*
X161822848Y-60390689D01*
X162032690Y-60704740D01*
X162032692Y-60704742D01*
X162103543Y-60810778D01*
X162209579Y-60881629D01*
X168939531Y-67611582D01*
X169010382Y-67717618D01*
X169430471Y-67998313D01*
X169800920Y-68072000D01*
X169800924Y-68072000D01*
X169926000Y-68096879D01*
X170051076Y-68072000D01*
X172753265Y-68072000D01*
X172958474Y-68157000D01*
X173497526Y-68157000D01*
X173995546Y-67950714D01*
X174376714Y-67569546D01*
X174583000Y-67071526D01*
X174583000Y-66532474D01*
X174438242Y-66182996D01*
X182823000Y-66182996D01*
X182823000Y-66913004D01*
X183102362Y-67587444D01*
X183618556Y-68103638D01*
X184292996Y-68383000D01*
X185023004Y-68383000D01*
X185697444Y-68103638D01*
X186213638Y-67587444D01*
X186473614Y-66959805D01*
X205729805Y-66959805D01*
X205962358Y-67521258D01*
X206453224Y-68042492D01*
X207106193Y-68336203D01*
X207391000Y-68219858D01*
X207391000Y-66675000D01*
X207645000Y-66675000D01*
X207645000Y-68219858D01*
X207929807Y-68336203D01*
X208582776Y-68042492D01*
X209073642Y-67521258D01*
X209306195Y-66959805D01*
X209189432Y-66675000D01*
X207645000Y-66675000D01*
X207391000Y-66675000D01*
X205846568Y-66675000D01*
X205729805Y-66959805D01*
X186473614Y-66959805D01*
X186493000Y-66913004D01*
X186493000Y-66182996D01*
X186473615Y-66136195D01*
X205729805Y-66136195D01*
X205846568Y-66421000D01*
X207391000Y-66421000D01*
X207391000Y-64876142D01*
X207645000Y-64876142D01*
X207645000Y-66421000D01*
X209189432Y-66421000D01*
X209306195Y-66136195D01*
X209073642Y-65574742D01*
X208582776Y-65053508D01*
X207929807Y-64759797D01*
X207645000Y-64876142D01*
X207391000Y-64876142D01*
X207106193Y-64759797D01*
X206453224Y-65053508D01*
X205962358Y-65574742D01*
X205729805Y-66136195D01*
X186473615Y-66136195D01*
X186213638Y-65508556D01*
X185697444Y-64992362D01*
X185023004Y-64713000D01*
X184292996Y-64713000D01*
X183618556Y-64992362D01*
X183102362Y-65508556D01*
X182823000Y-66182996D01*
X174438242Y-66182996D01*
X174376714Y-66034454D01*
X173995546Y-65653286D01*
X173816075Y-65578947D01*
X173624422Y-65450889D01*
X173228000Y-65372036D01*
X172831577Y-65450889D01*
X172710186Y-65532000D01*
X170452051Y-65532000D01*
X164289160Y-59369110D01*
X164289160Y-56792369D01*
X164304705Y-56769105D01*
X164327661Y-56846667D01*
X164669216Y-57268648D01*
X165146257Y-57527800D01*
X165217885Y-57541983D01*
X165432160Y-57419329D01*
X165432160Y-55076420D01*
X165686160Y-55076420D01*
X165686160Y-57419329D01*
X165900435Y-57541983D01*
X165972063Y-57527800D01*
X166203262Y-57402202D01*
X166001000Y-57890506D01*
X166001000Y-58441494D01*
X166211853Y-58950540D01*
X166601460Y-59340147D01*
X167110506Y-59551000D01*
X167661494Y-59551000D01*
X168170540Y-59340147D01*
X168560147Y-58950540D01*
X168675148Y-58672902D01*
X171497582Y-55850469D01*
X171603618Y-55779618D01*
X171884313Y-55359529D01*
X171958000Y-54989080D01*
X171958000Y-54989076D01*
X171958001Y-54989071D01*
X171958001Y-56369948D01*
X169621212Y-58706738D01*
X169343574Y-58821739D01*
X168953967Y-59211346D01*
X168743114Y-59720392D01*
X168743114Y-60271380D01*
X168953967Y-60780426D01*
X169343574Y-61170033D01*
X169852620Y-61380886D01*
X170403608Y-61380886D01*
X170912654Y-61170033D01*
X171302261Y-60780426D01*
X171417262Y-60502788D01*
X174037581Y-57882469D01*
X174143618Y-57811618D01*
X174333260Y-57527800D01*
X174424313Y-57391529D01*
X174439486Y-57315247D01*
X174498000Y-57021080D01*
X174498000Y-57021076D01*
X174522879Y-56896000D01*
X174498000Y-56770924D01*
X174498000Y-46902000D01*
X201448560Y-46902000D01*
X201448560Y-48602000D01*
X201497843Y-48849765D01*
X201638191Y-49059809D01*
X201848235Y-49200157D01*
X202096000Y-49249440D01*
X203796000Y-49249440D01*
X204043765Y-49200157D01*
X204253809Y-49059809D01*
X204394157Y-48849765D01*
X204414739Y-48746292D01*
X204719076Y-49023645D01*
X205129110Y-49193476D01*
X205359000Y-49072155D01*
X205359000Y-47879000D01*
X205613000Y-47879000D01*
X205613000Y-49072155D01*
X205842890Y-49193476D01*
X206252924Y-49023645D01*
X206681183Y-48633358D01*
X206927486Y-48108892D01*
X206806819Y-47879000D01*
X205613000Y-47879000D01*
X205359000Y-47879000D01*
X205339000Y-47879000D01*
X205339000Y-47625000D01*
X205359000Y-47625000D01*
X205359000Y-46431845D01*
X205613000Y-46431845D01*
X205613000Y-47625000D01*
X206806819Y-47625000D01*
X206927486Y-47395108D01*
X206681183Y-46870642D01*
X206252924Y-46480355D01*
X205842890Y-46310524D01*
X205613000Y-46431845D01*
X205359000Y-46431845D01*
X205129110Y-46310524D01*
X204719076Y-46480355D01*
X204414739Y-46757708D01*
X204394157Y-46654235D01*
X204253809Y-46444191D01*
X204043765Y-46303843D01*
X203796000Y-46254560D01*
X202096000Y-46254560D01*
X201848235Y-46303843D01*
X201638191Y-46444191D01*
X201497843Y-46654235D01*
X201448560Y-46902000D01*
X174498000Y-46902000D01*
X174498000Y-25410239D01*
X174511843Y-25389522D01*
X174572817Y-25519358D01*
X175001076Y-25909645D01*
X175411110Y-26079476D01*
X175641000Y-25958155D01*
X175641000Y-24765000D01*
X175621000Y-24765000D01*
X175621000Y-24511000D01*
X175641000Y-24511000D01*
X175641000Y-23317845D01*
X175895000Y-23317845D01*
X175895000Y-24511000D01*
X175915000Y-24511000D01*
X175915000Y-24765000D01*
X175895000Y-24765000D01*
X175895000Y-25958155D01*
X176124890Y-26079476D01*
X176534924Y-25909645D01*
X176839261Y-25632292D01*
X176859843Y-25735765D01*
X177000191Y-25945809D01*
X177210235Y-26086157D01*
X177458000Y-26135440D01*
X179158000Y-26135440D01*
X179405765Y-26086157D01*
X179615809Y-25945809D01*
X179756157Y-25735765D01*
X179805440Y-25488000D01*
X179805440Y-23788000D01*
X201194560Y-23788000D01*
X201194560Y-25488000D01*
X201243843Y-25735765D01*
X201384191Y-25945809D01*
X201422001Y-25971073D01*
X201422001Y-26632921D01*
X201397121Y-26758000D01*
X201495688Y-27253529D01*
X201705530Y-27567580D01*
X201705532Y-27567582D01*
X201776383Y-27673618D01*
X201882419Y-27744469D01*
X210820000Y-36682051D01*
X210820001Y-72879948D01*
X204725098Y-78974852D01*
X204447460Y-79089853D01*
X204057853Y-79479460D01*
X203847000Y-79988506D01*
X203847000Y-80539494D01*
X204057853Y-81048540D01*
X204447460Y-81438147D01*
X204956506Y-81649000D01*
X205507494Y-81649000D01*
X206016540Y-81438147D01*
X206406147Y-81048540D01*
X206521148Y-80770902D01*
X212899582Y-74392469D01*
X213005618Y-74321618D01*
X213286313Y-73901529D01*
X213360000Y-73531080D01*
X213360000Y-73531076D01*
X213384879Y-73406000D01*
X213360000Y-73280924D01*
X213360000Y-36281074D01*
X213384879Y-36155999D01*
X213360000Y-36030924D01*
X213360000Y-36030920D01*
X213286313Y-35660471D01*
X213005618Y-35240382D01*
X212899582Y-35169531D01*
X203962000Y-26231950D01*
X203962000Y-25971072D01*
X203999809Y-25945809D01*
X204140157Y-25735765D01*
X204149184Y-25690381D01*
X204161375Y-25708625D01*
X204652582Y-26036839D01*
X205085744Y-26123000D01*
X205378256Y-26123000D01*
X205811418Y-26036839D01*
X206302625Y-25708625D01*
X206630839Y-25217418D01*
X206746092Y-24638000D01*
X206630839Y-24058582D01*
X206302625Y-23567375D01*
X205811418Y-23239161D01*
X205378256Y-23153000D01*
X205085744Y-23153000D01*
X204652582Y-23239161D01*
X204161375Y-23567375D01*
X204149184Y-23585619D01*
X204140157Y-23540235D01*
X203999809Y-23330191D01*
X203789765Y-23189843D01*
X203542000Y-23140560D01*
X201842000Y-23140560D01*
X201594235Y-23189843D01*
X201384191Y-23330191D01*
X201243843Y-23540235D01*
X201194560Y-23788000D01*
X179805440Y-23788000D01*
X179756157Y-23540235D01*
X179615809Y-23330191D01*
X179405765Y-23189843D01*
X179158000Y-23140560D01*
X177458000Y-23140560D01*
X177210235Y-23189843D01*
X177000191Y-23330191D01*
X176859843Y-23540235D01*
X176839261Y-23643708D01*
X176534924Y-23366355D01*
X176124890Y-23196524D01*
X175895000Y-23317845D01*
X175641000Y-23317845D01*
X175411110Y-23196524D01*
X175001076Y-23366355D01*
X174572817Y-23756642D01*
X174511843Y-23886478D01*
X174298625Y-23567375D01*
X173807418Y-23239161D01*
X173374256Y-23153000D01*
X173081744Y-23153000D01*
X172648582Y-23239161D01*
X172157375Y-23567375D01*
X171958000Y-23865761D01*
X171758625Y-23567375D01*
X171267418Y-23239161D01*
X170834256Y-23153000D01*
X170541744Y-23153000D01*
X170108582Y-23239161D01*
X169617375Y-23567375D01*
X169289161Y-24058582D01*
X169173908Y-24638000D01*
X169289161Y-25217418D01*
X169418001Y-25410241D01*
X169418000Y-54337949D01*
X166879098Y-56876852D01*
X166709299Y-56947185D01*
X166790659Y-56846667D01*
X166944730Y-56326100D01*
X166944730Y-55076420D01*
X165686160Y-55076420D01*
X165432160Y-55076420D01*
X165412160Y-55076420D01*
X165412160Y-54822420D01*
X165432160Y-54822420D01*
X165432160Y-52479511D01*
X165686160Y-52479511D01*
X165686160Y-54822420D01*
X166944730Y-54822420D01*
X166944730Y-53572740D01*
X166790659Y-53052173D01*
X166449104Y-52630192D01*
X165972063Y-52371040D01*
X165900435Y-52356857D01*
X165686160Y-52479511D01*
X165432160Y-52479511D01*
X165217885Y-52356857D01*
X165146257Y-52371040D01*
X164669216Y-52630192D01*
X164327661Y-53052173D01*
X164304705Y-53129735D01*
X164018100Y-52700800D01*
X163559782Y-52394562D01*
X163019160Y-52287026D01*
X162478539Y-52394562D01*
X162020221Y-52700800D01*
X161749161Y-53106471D01*
X161478100Y-52700800D01*
X161019782Y-52394562D01*
X160479160Y-52287026D01*
X159938539Y-52394562D01*
X159480221Y-52700800D01*
X159209161Y-53106471D01*
X158938100Y-52700800D01*
X158479782Y-52394562D01*
X157939160Y-52287026D01*
X157398539Y-52394562D01*
X156940221Y-52700800D01*
X156653615Y-53129736D01*
X156630659Y-53052173D01*
X156289104Y-52630192D01*
X155812063Y-52371040D01*
X155740435Y-52356857D01*
X155526160Y-52479511D01*
X155526160Y-54822420D01*
X155546160Y-54822420D01*
X155546160Y-55076420D01*
X155526160Y-55076420D01*
X155526160Y-57419329D01*
X155740435Y-57541983D01*
X155812063Y-57527800D01*
X156289104Y-57268648D01*
X156630659Y-56846667D01*
X156653615Y-56769104D01*
X156923161Y-57172508D01*
X156923161Y-58332254D01*
X153875160Y-61380255D01*
X153875160Y-57172506D01*
X154144705Y-56769105D01*
X154167661Y-56846667D01*
X154509216Y-57268648D01*
X154986257Y-57527800D01*
X155057885Y-57541983D01*
X155272160Y-57419329D01*
X155272160Y-55076420D01*
X155252160Y-55076420D01*
X155252160Y-54822420D01*
X155272160Y-54822420D01*
X155272160Y-52479511D01*
X155057885Y-52356857D01*
X154986257Y-52371040D01*
X154509216Y-52630192D01*
X154167661Y-53052173D01*
X154144705Y-53129735D01*
X153858100Y-52700800D01*
X153399782Y-52394562D01*
X152859160Y-52287026D01*
X152318539Y-52394562D01*
X151860221Y-52700800D01*
X151589161Y-53106471D01*
X151318100Y-52700800D01*
X150859782Y-52394562D01*
X150319160Y-52287026D01*
X149778539Y-52394562D01*
X149320221Y-52700800D01*
X149049161Y-53106471D01*
X148778100Y-52700800D01*
X148319782Y-52394562D01*
X147779160Y-52287026D01*
X147238539Y-52394562D01*
X146780221Y-52700800D01*
X146509161Y-53106471D01*
X146238100Y-52700800D01*
X145779782Y-52394562D01*
X145239160Y-52287026D01*
X144698539Y-52394562D01*
X144240221Y-52700800D01*
X143969161Y-53106471D01*
X143698100Y-52700800D01*
X143239782Y-52394562D01*
X142699160Y-52287026D01*
X142158539Y-52394562D01*
X141700221Y-52700800D01*
X141429161Y-53106471D01*
X141158100Y-52700800D01*
X140699782Y-52394562D01*
X140159160Y-52287026D01*
X139618539Y-52394562D01*
X139160221Y-52700800D01*
X138889161Y-53106471D01*
X138618100Y-52700800D01*
X138159782Y-52394562D01*
X137619160Y-52287026D01*
X137078539Y-52394562D01*
X136620221Y-52700800D01*
X136349161Y-53106471D01*
X136078100Y-52700800D01*
X135619782Y-52394562D01*
X135079160Y-52287026D01*
X134538539Y-52394562D01*
X134080221Y-52700800D01*
X133809161Y-53106471D01*
X133538100Y-52700800D01*
X133079782Y-52394562D01*
X132539160Y-52287026D01*
X131998539Y-52394562D01*
X131540221Y-52700800D01*
X131269161Y-53106471D01*
X130998100Y-52700800D01*
X130539782Y-52394562D01*
X129999160Y-52287026D01*
X129458539Y-52394562D01*
X129000221Y-52700800D01*
X128713615Y-53129736D01*
X128690659Y-53052173D01*
X128349104Y-52630192D01*
X127872063Y-52371040D01*
X127800435Y-52356857D01*
X127586160Y-52479511D01*
X127586160Y-54822420D01*
X127606160Y-54822420D01*
X127606160Y-55076420D01*
X127586160Y-55076420D01*
X127586160Y-57419329D01*
X127800435Y-57541983D01*
X127872063Y-57527800D01*
X128349104Y-57268648D01*
X128690659Y-56846667D01*
X128713615Y-56769104D01*
X129000220Y-57198039D01*
X129458538Y-57504278D01*
X129999160Y-57611814D01*
X130539781Y-57504278D01*
X130998099Y-57198040D01*
X131269160Y-56792369D01*
X131523160Y-57172507D01*
X131523161Y-66919998D01*
X131408159Y-67035000D01*
X131213744Y-67035000D01*
X130780582Y-67121161D01*
X130289375Y-67449375D01*
X130090000Y-67747761D01*
X129890625Y-67449375D01*
X129399418Y-67121161D01*
X128966256Y-67035000D01*
X128673744Y-67035000D01*
X128240582Y-67121161D01*
X127749375Y-67449375D01*
X127550000Y-67747761D01*
X127350625Y-67449375D01*
X126859418Y-67121161D01*
X126426256Y-67035000D01*
X126133744Y-67035000D01*
X125700582Y-67121161D01*
X125209375Y-67449375D01*
X125010000Y-67747761D01*
X124810625Y-67449375D01*
X124319418Y-67121161D01*
X123886256Y-67035000D01*
X123593744Y-67035000D01*
X123160582Y-67121161D01*
X122669375Y-67449375D01*
X122470000Y-67747761D01*
X122270625Y-67449375D01*
X121779418Y-67121161D01*
X121346256Y-67035000D01*
X121053744Y-67035000D01*
X120620582Y-67121161D01*
X120129375Y-67449375D01*
X119801161Y-67940582D01*
X119685908Y-68520000D01*
X101960841Y-68520000D01*
X97836233Y-64395393D01*
X98095909Y-64343740D01*
X98570577Y-64026577D01*
X98806000Y-63674242D01*
X99041423Y-64026577D01*
X99516091Y-64343740D01*
X99934667Y-64427000D01*
X100217333Y-64427000D01*
X100635909Y-64343740D01*
X101110577Y-64026577D01*
X101346000Y-63674242D01*
X101581423Y-64026577D01*
X102056091Y-64343740D01*
X102474667Y-64427000D01*
X102757333Y-64427000D01*
X103175909Y-64343740D01*
X103650577Y-64026577D01*
X103906947Y-63642892D01*
X104003611Y-63847134D01*
X104418577Y-64223041D01*
X104806961Y-64383904D01*
X105029000Y-64261915D01*
X105029000Y-63119000D01*
X105283000Y-63119000D01*
X105283000Y-64261915D01*
X105505039Y-64383904D01*
X105893423Y-64223041D01*
X106308389Y-63847134D01*
X106547914Y-63341041D01*
X106426629Y-63119000D01*
X105283000Y-63119000D01*
X105029000Y-63119000D01*
X105009000Y-63119000D01*
X105009000Y-62865000D01*
X105029000Y-62865000D01*
X105029000Y-61722085D01*
X105283000Y-61722085D01*
X105283000Y-62865000D01*
X106426629Y-62865000D01*
X106547914Y-62642959D01*
X106308389Y-62136866D01*
X105893423Y-61760959D01*
X105505039Y-61600096D01*
X105283000Y-61722085D01*
X105029000Y-61722085D01*
X104806961Y-61600096D01*
X104418577Y-61760959D01*
X104003611Y-62136866D01*
X103906947Y-62341108D01*
X103650577Y-61957423D01*
X103175909Y-61640260D01*
X102757333Y-61557000D01*
X102474667Y-61557000D01*
X102056091Y-61640260D01*
X101581423Y-61957423D01*
X101346000Y-62309758D01*
X101110577Y-61957423D01*
X100635909Y-61640260D01*
X100217333Y-61557000D01*
X99934667Y-61557000D01*
X99516091Y-61640260D01*
X99041423Y-61957423D01*
X98806000Y-62309758D01*
X98570577Y-61957423D01*
X98095909Y-61640260D01*
X97677333Y-61557000D01*
X97394667Y-61557000D01*
X96976091Y-61640260D01*
X96501423Y-61957423D01*
X96266000Y-62309758D01*
X96030577Y-61957423D01*
X95555909Y-61640260D01*
X95137333Y-61557000D01*
X94854667Y-61557000D01*
X94436091Y-61640260D01*
X93961423Y-61957423D01*
X93726000Y-62309758D01*
X93490577Y-61957423D01*
X93015909Y-61640260D01*
X92597333Y-61557000D01*
X92314667Y-61557000D01*
X91896091Y-61640260D01*
X91421423Y-61957423D01*
X91186000Y-62309758D01*
X90950577Y-61957423D01*
X90475909Y-61640260D01*
X90057333Y-61557000D01*
X89774667Y-61557000D01*
X89356091Y-61640260D01*
X88881423Y-61957423D01*
X88646000Y-62309758D01*
X88410577Y-61957423D01*
X87935909Y-61640260D01*
X87517333Y-61557000D01*
X87234667Y-61557000D01*
X86816091Y-61640260D01*
X86341423Y-61957423D01*
X86260785Y-62078106D01*
X86234157Y-61944235D01*
X86093809Y-61734191D01*
X85883765Y-61593843D01*
X85636000Y-61544560D01*
X84036000Y-61544560D01*
X83788235Y-61593843D01*
X83578191Y-61734191D01*
X83437843Y-61944235D01*
X83388560Y-62192000D01*
X50272051Y-62192000D01*
X49365761Y-61285710D01*
X49534924Y-61215645D01*
X49839261Y-60938292D01*
X49859843Y-61041765D01*
X50000191Y-61251809D01*
X50210235Y-61392157D01*
X50458000Y-61441440D01*
X52158000Y-61441440D01*
X52405765Y-61392157D01*
X52615809Y-61251809D01*
X52756157Y-61041765D01*
X52805440Y-60794000D01*
X52805440Y-59928474D01*
X117517000Y-59928474D01*
X117517000Y-60467526D01*
X117723286Y-60965546D01*
X118104454Y-61346714D01*
X118602474Y-61553000D01*
X119141526Y-61553000D01*
X119639546Y-61346714D01*
X120020714Y-60965546D01*
X120227000Y-60467526D01*
X120227000Y-59928474D01*
X120020714Y-59430454D01*
X119639546Y-59049286D01*
X119141526Y-58843000D01*
X118602474Y-58843000D01*
X118104454Y-59049286D01*
X117723286Y-59430454D01*
X117517000Y-59928474D01*
X52805440Y-59928474D01*
X52805440Y-59094000D01*
X52756157Y-58846235D01*
X52615809Y-58636191D01*
X52405765Y-58495843D01*
X52158000Y-58446560D01*
X50458000Y-58446560D01*
X50210235Y-58495843D01*
X50000191Y-58636191D01*
X49859843Y-58846235D01*
X49839261Y-58949708D01*
X49534924Y-58672355D01*
X49124890Y-58502524D01*
X48895000Y-58623845D01*
X48895000Y-59817000D01*
X48915000Y-59817000D01*
X48915000Y-60071000D01*
X48895000Y-60071000D01*
X48895000Y-60091000D01*
X48641000Y-60091000D01*
X48641000Y-60071000D01*
X48621000Y-60071000D01*
X48621000Y-59817000D01*
X48641000Y-59817000D01*
X48641000Y-58623845D01*
X48411110Y-58502524D01*
X48001076Y-58672355D01*
X47572817Y-59062642D01*
X47511843Y-59192478D01*
X47298625Y-58873375D01*
X46807418Y-58545161D01*
X46374256Y-58459000D01*
X46081744Y-58459000D01*
X45648582Y-58545161D01*
X45157375Y-58873375D01*
X44958000Y-59171761D01*
X44758625Y-58873375D01*
X44267418Y-58545161D01*
X43834256Y-58459000D01*
X43541744Y-58459000D01*
X43108582Y-58545161D01*
X42617375Y-58873375D01*
X42289161Y-59364582D01*
X42173908Y-59944000D01*
X18515000Y-59944000D01*
X18515000Y-57388474D01*
X112437000Y-57388474D01*
X112437000Y-57927526D01*
X112643286Y-58425546D01*
X113024454Y-58806714D01*
X113522474Y-59013000D01*
X114061526Y-59013000D01*
X114559546Y-58806714D01*
X114940714Y-58425546D01*
X115147000Y-57927526D01*
X115147000Y-57388474D01*
X114940714Y-56890454D01*
X114559546Y-56509286D01*
X114061526Y-56303000D01*
X113522474Y-56303000D01*
X113024454Y-56509286D01*
X112643286Y-56890454D01*
X112437000Y-57388474D01*
X18515000Y-57388474D01*
X18515000Y-36692000D01*
X21312560Y-36692000D01*
X21312560Y-38492000D01*
X21361843Y-38739765D01*
X21502191Y-38949809D01*
X21712235Y-39090157D01*
X21844000Y-39116366D01*
X21844000Y-39153936D01*
X21824096Y-39254000D01*
X21844000Y-39354063D01*
X21844000Y-39354064D01*
X21902949Y-39650422D01*
X22127505Y-39986495D01*
X22212340Y-40043180D01*
X38188820Y-56019660D01*
X38245505Y-56104495D01*
X38519568Y-56287618D01*
X38581575Y-56329050D01*
X38581576Y-56329050D01*
X38581577Y-56329051D01*
X38877935Y-56388000D01*
X38977999Y-56407904D01*
X39078063Y-56388000D01*
X83789010Y-56388000D01*
X83801423Y-56406577D01*
X84276091Y-56723740D01*
X84694667Y-56807000D01*
X84977333Y-56807000D01*
X85395909Y-56723740D01*
X85870577Y-56406577D01*
X86106000Y-56054242D01*
X86341423Y-56406577D01*
X86816091Y-56723740D01*
X87234667Y-56807000D01*
X87517333Y-56807000D01*
X87935909Y-56723740D01*
X88410577Y-56406577D01*
X88646000Y-56054242D01*
X88881423Y-56406577D01*
X89356091Y-56723740D01*
X89774667Y-56807000D01*
X90057333Y-56807000D01*
X90475909Y-56723740D01*
X90950577Y-56406577D01*
X91186000Y-56054242D01*
X91421423Y-56406577D01*
X91896091Y-56723740D01*
X92314667Y-56807000D01*
X92597333Y-56807000D01*
X93015909Y-56723740D01*
X93490577Y-56406577D01*
X93726000Y-56054242D01*
X93961423Y-56406577D01*
X94436091Y-56723740D01*
X94854667Y-56807000D01*
X95137333Y-56807000D01*
X95555909Y-56723740D01*
X96030577Y-56406577D01*
X96266000Y-56054242D01*
X96501423Y-56406577D01*
X96976091Y-56723740D01*
X97394667Y-56807000D01*
X97677333Y-56807000D01*
X98095909Y-56723740D01*
X98570577Y-56406577D01*
X98806000Y-56054242D01*
X99041423Y-56406577D01*
X99516091Y-56723740D01*
X99934667Y-56807000D01*
X100217333Y-56807000D01*
X100635909Y-56723740D01*
X101110577Y-56406577D01*
X101346000Y-56054242D01*
X101581423Y-56406577D01*
X102056091Y-56723740D01*
X102474667Y-56807000D01*
X102757333Y-56807000D01*
X103175909Y-56723740D01*
X103650577Y-56406577D01*
X103886000Y-56054242D01*
X104121423Y-56406577D01*
X104596091Y-56723740D01*
X105014667Y-56807000D01*
X105297333Y-56807000D01*
X105715909Y-56723740D01*
X106190577Y-56406577D01*
X106416957Y-56067774D01*
X118101831Y-56067774D01*
X118166131Y-56305611D01*
X118674342Y-56485333D01*
X119212644Y-56456892D01*
X119577869Y-56305611D01*
X119642169Y-56067774D01*
X118872000Y-55297605D01*
X118101831Y-56067774D01*
X106416957Y-56067774D01*
X106507740Y-55931909D01*
X106619113Y-55372000D01*
X106529273Y-54920342D01*
X117504667Y-54920342D01*
X117533108Y-55458644D01*
X117684389Y-55823869D01*
X117922226Y-55888169D01*
X118692395Y-55118000D01*
X119051605Y-55118000D01*
X119821774Y-55888169D01*
X120059611Y-55823869D01*
X120239333Y-55315658D01*
X120226693Y-55076420D01*
X126073590Y-55076420D01*
X126073590Y-56326100D01*
X126227661Y-56846667D01*
X126569216Y-57268648D01*
X127046257Y-57527800D01*
X127117885Y-57541983D01*
X127332160Y-57419329D01*
X127332160Y-55076420D01*
X126073590Y-55076420D01*
X120226693Y-55076420D01*
X120210892Y-54777356D01*
X120059611Y-54412131D01*
X119821774Y-54347831D01*
X119051605Y-55118000D01*
X118692395Y-55118000D01*
X117922226Y-54347831D01*
X117684389Y-54412131D01*
X117504667Y-54920342D01*
X106529273Y-54920342D01*
X106507740Y-54812091D01*
X106190577Y-54337423D01*
X105937356Y-54168226D01*
X118101831Y-54168226D01*
X118872000Y-54938395D01*
X119642169Y-54168226D01*
X119577869Y-53930389D01*
X119069658Y-53750667D01*
X118531356Y-53779108D01*
X118166131Y-53930389D01*
X118101831Y-54168226D01*
X105937356Y-54168226D01*
X105715909Y-54020260D01*
X105297333Y-53937000D01*
X105014667Y-53937000D01*
X104596091Y-54020260D01*
X104121423Y-54337423D01*
X103886000Y-54689758D01*
X103650577Y-54337423D01*
X103175909Y-54020260D01*
X102757333Y-53937000D01*
X102474667Y-53937000D01*
X102056091Y-54020260D01*
X101581423Y-54337423D01*
X101346000Y-54689758D01*
X101110577Y-54337423D01*
X100635909Y-54020260D01*
X100217333Y-53937000D01*
X99934667Y-53937000D01*
X99516091Y-54020260D01*
X99041423Y-54337423D01*
X98806000Y-54689758D01*
X98570577Y-54337423D01*
X98124612Y-54039438D01*
X98591310Y-53572740D01*
X126073590Y-53572740D01*
X126073590Y-54822420D01*
X127332160Y-54822420D01*
X127332160Y-52479511D01*
X127117885Y-52356857D01*
X127046257Y-52371040D01*
X126569216Y-52630192D01*
X126227661Y-53052173D01*
X126073590Y-53572740D01*
X98591310Y-53572740D01*
X102888050Y-49276000D01*
X114715051Y-49276000D01*
X114857469Y-49991981D01*
X115263039Y-50598961D01*
X115870019Y-51004531D01*
X116405273Y-51111000D01*
X116766727Y-51111000D01*
X117301981Y-51004531D01*
X117908961Y-50598961D01*
X118314531Y-49991981D01*
X118456949Y-49276000D01*
X138337051Y-49276000D01*
X138479469Y-49991981D01*
X138885039Y-50598961D01*
X139492019Y-51004531D01*
X140027273Y-51111000D01*
X140388727Y-51111000D01*
X140923981Y-51004531D01*
X141530961Y-50598961D01*
X141936531Y-49991981D01*
X142078949Y-49276000D01*
X141936531Y-48560019D01*
X141530961Y-47953039D01*
X140923981Y-47547469D01*
X140388727Y-47441000D01*
X140027273Y-47441000D01*
X139492019Y-47547469D01*
X138885039Y-47953039D01*
X138479469Y-48560019D01*
X138337051Y-49276000D01*
X118456949Y-49276000D01*
X118314531Y-48560019D01*
X117908961Y-47953039D01*
X117301981Y-47547469D01*
X116766727Y-47441000D01*
X116405273Y-47441000D01*
X115870019Y-47547469D01*
X115263039Y-47953039D01*
X114857469Y-48560019D01*
X114715051Y-49276000D01*
X102888050Y-49276000D01*
X113302051Y-38862000D01*
X125837518Y-38862000D01*
X125896191Y-38949809D01*
X126106235Y-39090157D01*
X126354000Y-39139440D01*
X128154000Y-39139440D01*
X128401765Y-39090157D01*
X128611809Y-38949809D01*
X128752157Y-38739765D01*
X128755275Y-38724092D01*
X128924493Y-38893310D01*
X129488670Y-39127000D01*
X130099330Y-39127000D01*
X130663507Y-38893310D01*
X131095310Y-38461507D01*
X131329000Y-37897330D01*
X131329000Y-37286670D01*
X131095310Y-36722493D01*
X130663507Y-36290690D01*
X130099330Y-36057000D01*
X129488670Y-36057000D01*
X128924493Y-36290690D01*
X128755275Y-36459908D01*
X128752157Y-36444235D01*
X128611809Y-36234191D01*
X128401765Y-36093843D01*
X128154000Y-36044560D01*
X126354000Y-36044560D01*
X126106235Y-36093843D01*
X125896191Y-36234191D01*
X125837518Y-36322000D01*
X112901074Y-36322000D01*
X112775999Y-36297121D01*
X112650924Y-36322000D01*
X112650920Y-36322000D01*
X112280471Y-36395687D01*
X111860382Y-36676382D01*
X111789531Y-36782418D01*
X104394000Y-44177949D01*
X104394000Y-39008482D01*
X104481809Y-38949809D01*
X104622157Y-38739765D01*
X104625275Y-38724092D01*
X104794493Y-38893310D01*
X105358670Y-39127000D01*
X105969330Y-39127000D01*
X106533507Y-38893310D01*
X106965310Y-38461507D01*
X107199000Y-37897330D01*
X107199000Y-37286670D01*
X106965310Y-36722493D01*
X106533507Y-36290690D01*
X105969330Y-36057000D01*
X105358670Y-36057000D01*
X104794493Y-36290690D01*
X104625275Y-36459908D01*
X104622157Y-36444235D01*
X104481809Y-36234191D01*
X104271765Y-36093843D01*
X104024000Y-36044560D01*
X102224000Y-36044560D01*
X101976235Y-36093843D01*
X101766191Y-36234191D01*
X101625843Y-36444235D01*
X101576560Y-36692000D01*
X101576560Y-38492000D01*
X101625843Y-38739765D01*
X101766191Y-38949809D01*
X101854000Y-39008482D01*
X101854001Y-44177948D01*
X92161405Y-53870545D01*
X91948000Y-53828096D01*
X91551577Y-53906950D01*
X91215506Y-54131506D01*
X91014247Y-54432711D01*
X90950577Y-54337423D01*
X90475909Y-54020260D01*
X90331608Y-53991557D01*
X85870051Y-49530000D01*
X90585051Y-49530000D01*
X90727469Y-50245981D01*
X91133039Y-50852961D01*
X91740019Y-51258531D01*
X92275273Y-51365000D01*
X92636727Y-51365000D01*
X93171981Y-51258531D01*
X93778961Y-50852961D01*
X94184531Y-50245981D01*
X94326949Y-49530000D01*
X94184531Y-48814019D01*
X93778961Y-48207039D01*
X93171981Y-47801469D01*
X92636727Y-47695000D01*
X92275273Y-47695000D01*
X91740019Y-47801469D01*
X91133039Y-48207039D01*
X90727469Y-48814019D01*
X90585051Y-49530000D01*
X85870051Y-49530000D01*
X80264000Y-43923950D01*
X80264000Y-39008482D01*
X80351809Y-38949809D01*
X80492157Y-38739765D01*
X80495275Y-38724092D01*
X80664493Y-38893310D01*
X81228670Y-39127000D01*
X81839330Y-39127000D01*
X82403507Y-38893310D01*
X82835310Y-38461507D01*
X83069000Y-37897330D01*
X83069000Y-37286670D01*
X82835310Y-36722493D01*
X82403507Y-36290690D01*
X81839330Y-36057000D01*
X81228670Y-36057000D01*
X80664493Y-36290690D01*
X80495275Y-36459908D01*
X80492157Y-36444235D01*
X80351809Y-36234191D01*
X80141765Y-36093843D01*
X79894000Y-36044560D01*
X78094000Y-36044560D01*
X77846235Y-36093843D01*
X77636191Y-36234191D01*
X77495843Y-36444235D01*
X77446560Y-36692000D01*
X77446560Y-38492000D01*
X77495843Y-38739765D01*
X77636191Y-38949809D01*
X77724000Y-39008482D01*
X77724001Y-43923951D01*
X72393672Y-38593622D01*
X72322819Y-38487583D01*
X71902730Y-38206888D01*
X71532281Y-38133201D01*
X71532276Y-38133201D01*
X71407201Y-38108322D01*
X71282126Y-38133201D01*
X54777299Y-38133201D01*
X54875000Y-37897330D01*
X54875000Y-37286670D01*
X54641310Y-36722493D01*
X54209507Y-36290690D01*
X53645330Y-36057000D01*
X53034670Y-36057000D01*
X52470493Y-36290690D01*
X52301275Y-36459908D01*
X52298157Y-36444235D01*
X52157809Y-36234191D01*
X51947765Y-36093843D01*
X51700000Y-36044560D01*
X49900000Y-36044560D01*
X49652235Y-36093843D01*
X49442191Y-36234191D01*
X49301843Y-36444235D01*
X49252560Y-36692000D01*
X49252560Y-38492000D01*
X49301843Y-38739765D01*
X49442191Y-38949809D01*
X49652235Y-39090157D01*
X49900000Y-39139440D01*
X50410812Y-39139440D01*
X51484153Y-40212782D01*
X51555005Y-40318819D01*
X51975094Y-40599514D01*
X52345543Y-40673201D01*
X52345547Y-40673201D01*
X52470623Y-40698080D01*
X52595699Y-40673201D01*
X70881151Y-40673201D01*
X84247388Y-54039439D01*
X83801423Y-54337423D01*
X83789010Y-54356000D01*
X39398840Y-54356000D01*
X24082836Y-39039996D01*
X24217809Y-38949809D01*
X24358157Y-38739765D01*
X24361275Y-38724092D01*
X24530493Y-38893310D01*
X25094670Y-39127000D01*
X25498160Y-39127000D01*
X36564468Y-50193309D01*
X36625469Y-50499981D01*
X37031039Y-51106961D01*
X37638019Y-51512531D01*
X38173273Y-51619000D01*
X38534727Y-51619000D01*
X39069981Y-51512531D01*
X39676961Y-51106961D01*
X40082531Y-50499981D01*
X40224949Y-49784000D01*
X64169051Y-49784000D01*
X64311469Y-50499981D01*
X64717039Y-51106961D01*
X65324019Y-51512531D01*
X65859273Y-51619000D01*
X66220727Y-51619000D01*
X66755981Y-51512531D01*
X67362961Y-51106961D01*
X67768531Y-50499981D01*
X67910949Y-49784000D01*
X67768531Y-49068019D01*
X67362961Y-48461039D01*
X66755981Y-48055469D01*
X66220727Y-47949000D01*
X65859273Y-47949000D01*
X65324019Y-48055469D01*
X64717039Y-48461039D01*
X64311469Y-49068019D01*
X64169051Y-49784000D01*
X40224949Y-49784000D01*
X40082531Y-49068019D01*
X39676961Y-48461039D01*
X39069981Y-48055469D01*
X38534727Y-47949000D01*
X38173273Y-47949000D01*
X37638019Y-48055469D01*
X37435577Y-48190736D01*
X26935000Y-37690160D01*
X26935000Y-37286670D01*
X26701310Y-36722493D01*
X26269507Y-36290690D01*
X25705330Y-36057000D01*
X25094670Y-36057000D01*
X24530493Y-36290690D01*
X24361275Y-36459908D01*
X24358157Y-36444235D01*
X24217809Y-36234191D01*
X24007765Y-36093843D01*
X23760000Y-36044560D01*
X21960000Y-36044560D01*
X21712235Y-36093843D01*
X21502191Y-36234191D01*
X21361843Y-36444235D01*
X21312560Y-36692000D01*
X18515000Y-36692000D01*
X18515000Y-26558996D01*
X36519000Y-26558996D01*
X36519000Y-27289004D01*
X36798362Y-27963444D01*
X37314556Y-28479638D01*
X37988996Y-28759000D01*
X38719004Y-28759000D01*
X39393444Y-28479638D01*
X39909638Y-27963444D01*
X40189000Y-27289004D01*
X40189000Y-26558996D01*
X64205000Y-26558996D01*
X64205000Y-27289004D01*
X64484362Y-27963444D01*
X65000556Y-28479638D01*
X65674996Y-28759000D01*
X66405004Y-28759000D01*
X67079444Y-28479638D01*
X67595638Y-27963444D01*
X67875000Y-27289004D01*
X67875000Y-26558996D01*
X67769790Y-26304996D01*
X90621000Y-26304996D01*
X90621000Y-27035004D01*
X90900362Y-27709444D01*
X91416556Y-28225638D01*
X92090996Y-28505000D01*
X92821004Y-28505000D01*
X93495444Y-28225638D01*
X94011638Y-27709444D01*
X94291000Y-27035004D01*
X94291000Y-26304996D01*
X94185790Y-26050996D01*
X114751000Y-26050996D01*
X114751000Y-26781004D01*
X115030362Y-27455444D01*
X115546556Y-27971638D01*
X116220996Y-28251000D01*
X116951004Y-28251000D01*
X117625444Y-27971638D01*
X118141638Y-27455444D01*
X118421000Y-26781004D01*
X118421000Y-26050996D01*
X138373000Y-26050996D01*
X138373000Y-26781004D01*
X138652362Y-27455444D01*
X139168556Y-27971638D01*
X139842996Y-28251000D01*
X140573004Y-28251000D01*
X141247444Y-27971638D01*
X141763638Y-27455444D01*
X142043000Y-26781004D01*
X142043000Y-26050996D01*
X141763638Y-25376556D01*
X141247444Y-24860362D01*
X140573004Y-24581000D01*
X139842996Y-24581000D01*
X139168556Y-24860362D01*
X138652362Y-25376556D01*
X138373000Y-26050996D01*
X118421000Y-26050996D01*
X118141638Y-25376556D01*
X117625444Y-24860362D01*
X116951004Y-24581000D01*
X116220996Y-24581000D01*
X115546556Y-24860362D01*
X115030362Y-25376556D01*
X114751000Y-26050996D01*
X94185790Y-26050996D01*
X94011638Y-25630556D01*
X93495444Y-25114362D01*
X92821004Y-24835000D01*
X92090996Y-24835000D01*
X91416556Y-25114362D01*
X90900362Y-25630556D01*
X90621000Y-26304996D01*
X67769790Y-26304996D01*
X67595638Y-25884556D01*
X67079444Y-25368362D01*
X66405004Y-25089000D01*
X65674996Y-25089000D01*
X65000556Y-25368362D01*
X64484362Y-25884556D01*
X64205000Y-26558996D01*
X40189000Y-26558996D01*
X39909638Y-25884556D01*
X39393444Y-25368362D01*
X38719004Y-25089000D01*
X37988996Y-25089000D01*
X37314556Y-25368362D01*
X36798362Y-25884556D01*
X36519000Y-26558996D01*
X18515000Y-26558996D01*
X18515000Y-18515000D01*
X220245001Y-18515000D01*
X220245000Y-118645000D01*
G36*
X151843160Y-57172507D02*
X151843160Y-57811734D01*
X151843161Y-57811739D01*
X151843160Y-62045801D01*
X145557440Y-68331522D01*
X145557440Y-67670000D01*
X145508157Y-67422235D01*
X145367809Y-67212191D01*
X145157765Y-67071843D01*
X144910000Y-67022560D01*
X143210000Y-67022560D01*
X142962235Y-67071843D01*
X142752191Y-67212191D01*
X142611843Y-67422235D01*
X142602816Y-67467619D01*
X142590625Y-67449375D01*
X142099418Y-67121161D01*
X141666256Y-67035000D01*
X141373744Y-67035000D01*
X141175160Y-67074501D01*
X141175160Y-57172506D01*
X141429160Y-56792369D01*
X141700220Y-57198039D01*
X142158538Y-57504278D01*
X142699160Y-57611814D01*
X143239781Y-57504278D01*
X143698099Y-57198040D01*
X143969160Y-56792369D01*
X144240220Y-57198039D01*
X144698538Y-57504278D01*
X145239160Y-57611814D01*
X145779781Y-57504278D01*
X146238099Y-57198040D01*
X146509160Y-56792369D01*
X146780220Y-57198039D01*
X147238538Y-57504278D01*
X147779160Y-57611814D01*
X148319781Y-57504278D01*
X148778099Y-57198040D01*
X149049160Y-56792369D01*
X149320220Y-57198039D01*
X149778538Y-57504278D01*
X150319160Y-57611814D01*
X150859781Y-57504278D01*
X151318099Y-57198040D01*
X151589160Y-56792369D01*
X151843160Y-57172507D01*
X151843160Y-57172507D01*
G37*
X151843160Y-57172507D02*
X151843160Y-57811734D01*
X151843161Y-57811739D01*
X151843160Y-62045801D01*
X145557440Y-68331522D01*
X145557440Y-67670000D01*
X145508157Y-67422235D01*
X145367809Y-67212191D01*
X145157765Y-67071843D01*
X144910000Y-67022560D01*
X143210000Y-67022560D01*
X142962235Y-67071843D01*
X142752191Y-67212191D01*
X142611843Y-67422235D01*
X142602816Y-67467619D01*
X142590625Y-67449375D01*
X142099418Y-67121161D01*
X141666256Y-67035000D01*
X141373744Y-67035000D01*
X141175160Y-67074501D01*
X141175160Y-57172506D01*
X141429160Y-56792369D01*
X141700220Y-57198039D01*
X142158538Y-57504278D01*
X142699160Y-57611814D01*
X143239781Y-57504278D01*
X143698099Y-57198040D01*
X143969160Y-56792369D01*
X144240220Y-57198039D01*
X144698538Y-57504278D01*
X145239160Y-57611814D01*
X145779781Y-57504278D01*
X146238099Y-57198040D01*
X146509160Y-56792369D01*
X146780220Y-57198039D01*
X147238538Y-57504278D01*
X147779160Y-57611814D01*
X148319781Y-57504278D01*
X148778099Y-57198040D01*
X149049160Y-56792369D01*
X149320220Y-57198039D01*
X149778538Y-57504278D01*
X150319160Y-57611814D01*
X150859781Y-57504278D01*
X151318099Y-57198040D01*
X151589160Y-56792369D01*
X151843160Y-57172507D01*
G36*
X91421423Y-64026577D02*
X91437246Y-64037150D01*
X91420096Y-64123370D01*
X91480492Y-64427000D01*
X91498950Y-64519793D01*
X91723506Y-64855865D01*
X91808338Y-64912548D01*
X107299452Y-80403663D01*
X107356135Y-80488495D01*
X107593235Y-80646920D01*
X107692205Y-80713050D01*
X107692206Y-80713050D01*
X107692207Y-80713051D01*
X107988565Y-80772000D01*
X108088629Y-80791904D01*
X108188693Y-80772000D01*
X135723160Y-80772000D01*
X140734000Y-85782841D01*
X140734001Y-87592875D01*
X140679375Y-87629375D01*
X140480000Y-87927761D01*
X140280625Y-87629375D01*
X139789418Y-87301161D01*
X139356256Y-87215000D01*
X139063744Y-87215000D01*
X138630582Y-87301161D01*
X138139375Y-87629375D01*
X137940000Y-87927761D01*
X137740625Y-87629375D01*
X137249418Y-87301161D01*
X136816256Y-87215000D01*
X136523744Y-87215000D01*
X136090582Y-87301161D01*
X135599375Y-87629375D01*
X135400000Y-87927761D01*
X135200625Y-87629375D01*
X134709418Y-87301161D01*
X134276256Y-87215000D01*
X133983744Y-87215000D01*
X133550582Y-87301161D01*
X133059375Y-87629375D01*
X132860000Y-87927761D01*
X132660625Y-87629375D01*
X132169418Y-87301161D01*
X131736256Y-87215000D01*
X131443744Y-87215000D01*
X131010582Y-87301161D01*
X130519375Y-87629375D01*
X130320000Y-87927761D01*
X130120625Y-87629375D01*
X129629418Y-87301161D01*
X129196256Y-87215000D01*
X129001841Y-87215000D01*
X123435180Y-81648340D01*
X123378495Y-81563505D01*
X123042423Y-81338949D01*
X122746065Y-81280000D01*
X122746063Y-81280000D01*
X122646000Y-81260096D01*
X122545937Y-81280000D01*
X105051261Y-81280000D01*
X90932000Y-66894704D01*
X90932000Y-64038990D01*
X90950577Y-64026577D01*
X91186000Y-63674242D01*
X91421423Y-64026577D01*
X91421423Y-64026577D01*
G37*
X91421423Y-64026577D02*
X91437246Y-64037150D01*
X91420096Y-64123370D01*
X91480492Y-64427000D01*
X91498950Y-64519793D01*
X91723506Y-64855865D01*
X91808338Y-64912548D01*
X107299452Y-80403663D01*
X107356135Y-80488495D01*
X107593235Y-80646920D01*
X107692205Y-80713050D01*
X107692206Y-80713050D01*
X107692207Y-80713051D01*
X107988565Y-80772000D01*
X108088629Y-80791904D01*
X108188693Y-80772000D01*
X135723160Y-80772000D01*
X140734000Y-85782841D01*
X140734001Y-87592875D01*
X140679375Y-87629375D01*
X140480000Y-87927761D01*
X140280625Y-87629375D01*
X139789418Y-87301161D01*
X139356256Y-87215000D01*
X139063744Y-87215000D01*
X138630582Y-87301161D01*
X138139375Y-87629375D01*
X137940000Y-87927761D01*
X137740625Y-87629375D01*
X137249418Y-87301161D01*
X136816256Y-87215000D01*
X136523744Y-87215000D01*
X136090582Y-87301161D01*
X135599375Y-87629375D01*
X135400000Y-87927761D01*
X135200625Y-87629375D01*
X134709418Y-87301161D01*
X134276256Y-87215000D01*
X133983744Y-87215000D01*
X133550582Y-87301161D01*
X133059375Y-87629375D01*
X132860000Y-87927761D01*
X132660625Y-87629375D01*
X132169418Y-87301161D01*
X131736256Y-87215000D01*
X131443744Y-87215000D01*
X131010582Y-87301161D01*
X130519375Y-87629375D01*
X130320000Y-87927761D01*
X130120625Y-87629375D01*
X129629418Y-87301161D01*
X129196256Y-87215000D01*
X129001841Y-87215000D01*
X123435180Y-81648340D01*
X123378495Y-81563505D01*
X123042423Y-81338949D01*
X122746065Y-81280000D01*
X122746063Y-81280000D01*
X122646000Y-81260096D01*
X122545937Y-81280000D01*
X105051261Y-81280000D01*
X90932000Y-66894704D01*
X90932000Y-64038990D01*
X90950577Y-64026577D01*
X91186000Y-63674242D01*
X91421423Y-64026577D01*
G04 #@! TD*
M02*
