M48
;DRILL file {KiCad (5.0.1)-3} date 10/26/2019 8:53:43 PM
;FORMAT={-:-/ absolute / metric / decimal}
FMAT,2
METRIC,TZ
T1C0.750
T2C0.800
T3C0.900
T4C1.000
T5C1.001
T6C1.100
T7C1.200
T8C1.300
%
G90
G05
M71
T1
X136.144Y-96.012
X137.414Y-96.012
X138.684Y-96.012
T2
X84.836Y-55.372
X84.836Y-62.992
X87.376Y-55.372
X87.376Y-62.992
X89.916Y-55.372
X89.916Y-62.992
X92.456Y-55.372
X92.456Y-62.992
X94.996Y-55.372
X94.996Y-62.992
X97.536Y-55.372
X97.536Y-62.992
X100.076Y-55.372
X100.076Y-62.992
X102.616Y-55.372
X102.616Y-62.992
X105.156Y-55.372
X105.156Y-62.992
X113.792Y-57.658
X118.872Y-55.118
X118.872Y-60.198
X168.148Y-69.342
X173.228Y-66.802
X173.228Y-71.882
T3
X22.86Y-37.592
X25.4Y-37.592
X195.326Y-76.708
X197.866Y-76.708
X78.994Y-37.592
X81.534Y-37.592
X50.8Y-37.592
X53.34Y-37.592
X127.254Y-37.592
X129.794Y-37.592
X103.124Y-37.592
X105.664Y-37.592
T4
X170.688Y-24.638
X173.228Y-24.638
X175.768Y-24.638
X178.308Y-24.638
X202.946Y-47.752
X205.486Y-47.752
X121.2Y-68.52
X123.74Y-68.52
X126.28Y-68.52
X128.82Y-68.52
X131.36Y-68.52
X133.9Y-68.52
X136.44Y-68.52
X138.98Y-68.52
X141.52Y-68.52
X144.06Y-68.52
X43.688Y-59.944
X46.228Y-59.944
X48.768Y-59.944
X51.308Y-59.944
X106.19Y-88.7
X108.73Y-88.7
X111.27Y-88.7
X113.81Y-88.7
X116.35Y-88.7
X118.89Y-88.7
X121.43Y-88.7
X123.97Y-88.7
X126.51Y-88.7
X129.05Y-88.7
X131.59Y-88.7
X134.13Y-88.7
X136.67Y-88.7
X139.21Y-88.7
X141.75Y-88.7
X144.29Y-88.7
X205.232Y-100.33
X205.232Y-102.87
X202.692Y-24.638
X205.232Y-24.638
T5
X127.459Y-54.949
X129.999Y-54.949
X132.539Y-54.949
X135.079Y-54.949
X137.619Y-54.949
X140.159Y-54.949
X142.699Y-54.949
X145.239Y-54.949
X147.779Y-54.949
X150.319Y-54.949
X152.859Y-54.949
X155.399Y-54.949
X157.939Y-54.949
X160.479Y-54.949
X163.019Y-54.949
X165.559Y-54.949
T6
X187.706Y-94.996
X190.246Y-94.996
X192.786Y-94.996
T7
X56.896Y-75.692
X71.374Y-69.85
X89.408Y-75.692
X114.808Y-76.2
X133.35Y-85.852
X147.066Y-60.96
X159.766Y-65.532
X159.766Y-71.374
X161.544Y-80.772
X166.878Y-94.996
X167.386Y-58.166
X170.128Y-59.996
X179.578Y-103.886
X184.404Y-100.076
X185.166Y-83.82
X205.232Y-80.264
X140.208Y-26.416
X140.208Y-49.276
X92.456Y-26.67
X92.456Y-49.53
X116.586Y-26.416
X116.586Y-49.276
X38.354Y-26.924
X38.354Y-49.784
X66.04Y-26.924
X66.04Y-49.784
X124.197Y-108.458
X147.057Y-108.458
X184.658Y-66.548
X207.518Y-66.548
X167.132Y-103.124
X189.992Y-103.124
T8
X72.39Y-96.426
X72.39Y-101.426
X72.39Y-106.426
T4
X211.836Y-90.154G85X211.836Y-88.154
G05
X215.836Y-84.454G85X213.836Y-84.454
G05
X217.836Y-90.154G85X217.836Y-88.154
G05
T0
M30
